<?xml version="1.0" encoding="utf-8"?>
<!-- Generator: Adobe Illustrator 19.2.1, SVG Export Plug-In . SVG Version: 6.00 Build 0)  -->
<svg version="1.1" id="Layer_1" xmlns="http://www.w3.org/2000/svg" xmlns:xlink="http://www.w3.org/1999/xlink" x="0px" y="0px"
	 viewBox="0 0 248.1 153.3" style="enable-background:new 0 0 248.1 153.3;" xml:space="preserve">
<style type="text/css">
	.st0{fill:#FFFFFF;}
</style>
<g id="Gracias_Mobile">
</g>
<g id="Landing_iPad">
</g>
<g id="Gracias_iPad">
</g>
<g id="Landing_Desktop">
</g>
<g id="Gracias_Desktop">
</g>
<g>
	<g>
		<path class="st0" d="M38.2,38.9c-1.2-2.4-1.7-5.6,0.8-9.1c2-2.8,4.1-5.1,2.5-10.4c3.1,3.6,4.1,8,2.9,11.3
			C42.8,34.6,39.4,35.3,38.2,38.9z"/>
		<path class="st0" d="M29.9,40C23,39,15.8,30.1,23,20.5C29.9,11.4,34.3,7,29.6,0.2c7.1,6,4,13.5-1.7,22.3
			C24.9,27.1,23.4,34.5,29.9,40z"/>
		<path class="st0" d="M9.8,43.8c0,0,2.8-0.5,10.2-2.4c3.9-1,8.3-0.3,10.1,1.5c1.6,1.7,2.2,3.7,2.3,4c0.2,0.5,0.4,1.6,0.4,1.6
			s0.6-1.7,0.9-2.1c0.1-0.2,1-0.2,1.6-1.9c0.5-1.2,0-2.9-2.2-4.5c-4.8-3.3-5.3-11.4-1.2-17.4c5.1-7.5,5.8-11.5,3.5-15.1
			c8,7.2,3.4,14.8,0.7,18.7c-2.3,3.3-3.1,6.2-2.3,9.4c0.1,0.7,0.3,1.8,0.9,2.9c0.6,0.9,1.5,3.4,3,2.8c2.4-0.9,4.7-0.3,8.7,0.5
			c6.7,1.4,9.3,1.9,9.3,1.9l5.1,6.9c0,0-12.3-2.4-16.7-3c-4.9-0.7-9.6,0.1-11.2,2.9c-1.6-2.8-6.2-3.6-10.9-3c-4.3,0.6-16.9,3-16.9,3
			L9.8,43.8z"/>
	</g>
	<g>
		<g>
			<path class="st0" d="M65.4,50.2v-0.4c0.7-0.1,1.2-0.3,1.6-0.6s0.6-0.8,0.8-1.6c0.1-0.5,0.3-1.3,0.4-2.3c0.2-1,0.3-2.2,0.5-3.7
				c0.1-1.2,0.3-2.3,0.4-3.2s0.1-1.5,0.1-1.7c0-0.7-0.2-1.2-0.6-1.6c-0.4-0.4-1-0.6-1.9-0.7V34c0.3,0,0.7,0,1,0c0.4,0,0.9,0,1.6,0
				s1.2,0,1.6,0c0.3,0,0.6,0,0.9,0v0.3c-0.1,0.1-0.1,0.2-0.2,0.3c0,0.1-0.1,0.2-0.1,0.2c0,0.5,0.4,1.7,1.2,3.5
				c0,0.1,0.1,0.1,0.1,0.2l3.6,8l4.4-9.8c0,0,0-0.1,0.1-0.1c0.3-0.6,0.5-1.1,0.5-1.6c0-0.2,0-0.3-0.1-0.4c0-0.1-0.1-0.2-0.2-0.3V34
				c0.3,0,0.6,0,0.9,0s0.9,0,1.6,0s1.3,0,1.7,0c0.4,0,0.7,0,1.1,0v0.4c-0.9,0-1.5,0.3-1.9,0.7s-0.6,1.1-0.6,2.1c0,0.1,0,0.3,0,0.6
				s0,0.6,0.1,1l0.5,7.5c0.1,1.5,0.3,2.4,0.7,2.8c0.4,0.4,1,0.6,2,0.7v0.4c-0.8,0-1.5,0-2,0s-1.1,0-1.6,0c-0.8,0-2.1,0-3.9,0h-0.3
				v-0.4c1.2-0.1,1.9-0.4,2.3-0.7c0.4-0.4,0.6-1,0.6-1.9c0-0.2,0-0.3,0-0.4c0-0.1,0-0.2,0-0.3l-0.6-9.6l-3.6,7.8
				c-0.3,0.7-0.7,1.4-1,2.4c-0.4,0.9-0.9,2-1.4,3.3h-0.2c-0.3-0.7-0.6-1.4-0.9-2.1c-0.3-0.7-0.5-1.1-0.5-1.2l-4.3-9.6l-0.3,3.1
				c-0.1,1.4-0.3,2.6-0.3,3.8c-0.1,1.2-0.1,2.1-0.1,2.8c0,0.9,0.2,1.5,0.6,1.9c0.4,0.3,1.1,0.6,2.3,0.8v0.4c0,0-0.1,0-0.2,0
				c-1.5,0-2.6,0-3.3,0c-0.4,0-0.8,0-1.3,0C66.7,50.2,66.1,50.2,65.4,50.2z"/>
			<path class="st0" d="M90.7,43.1c0,2,0.5,3.7,1.5,4.9c1,1.3,2.2,1.9,3.7,1.9s2.7-0.6,3.6-1.7c0.9-1.1,1.4-2.6,1.4-4.5
				c0-0.8-0.1-1.6-0.3-2.4c-0.2-0.8-0.5-1.5-0.9-2c-0.5-0.8-1.1-1.4-1.8-1.8c-0.7-0.4-1.4-0.6-2.2-0.6c-1.5,0-2.6,0.6-3.5,1.7
				C91.2,39.7,90.7,41.2,90.7,43.1z M88.4,43.3c0-2.1,0.7-3.8,2-5.1c1.4-1.3,3.2-1.9,5.4-1.9c2.2,0,4,0.7,5.3,2s2,3.1,2,5.2
				c0,2.1-0.7,3.8-2,5c-1.4,1.3-3.2,1.9-5.4,1.9c-2.2,0-4-0.7-5.3-2C89,47.2,88.4,45.5,88.4,43.3z"/>
			<path class="st0" d="M103.9,50.2v-0.4c1-0.1,1.7-0.4,2.1-1s0.6-1.9,0.6-3.8v-3.8c0-0.2,0-0.4,0-0.7s0-0.5,0-0.6
				c0-0.6-0.1-1.1-0.2-1.4c-0.1-0.3-0.3-0.6-0.6-0.9c-0.2-0.2-0.5-0.4-0.9-0.6c-0.3-0.1-0.7-0.2-1.2-0.3v-0.4c0.2,0,0.5,0,0.9,0
				s0.7,0,0.9,0c0.2,0,0.5,0,0.8,0c0.4,0,0.6,0,0.8,0l9.8,10.5v-4.5c0-1.7,0-2.8-0.1-3.4c-0.1-0.6-0.3-1-0.5-1.3s-0.5-0.5-0.8-0.6
				c-0.4-0.1-0.8-0.2-1.3-0.3v-0.4c0.3,0,0.7,0,1.1,0s1,0,1.7,0c0.8,0,1.3,0,1.7,0c0.4,0,0.7,0,1,0v0.4h-0.2c-0.7,0-1.2,0.3-1.5,1
				s-0.4,2-0.4,3.9v4.2c0,1,0,1.8,0,2.6s0,1.5,0.1,2.1h-0.1c-0.4-0.5-0.8-1-1.3-1.5s-0.7-0.8-0.8-0.9l-8.3-8.8v3.9
				c0,1.9,0,3.2,0.1,3.8c0.1,0.7,0.2,1.1,0.4,1.4c0.2,0.3,0.4,0.5,0.8,0.7s0.9,0.3,1.6,0.5V50c0,0,0,0-0.1,0c-1.3,0-2.4,0-3,0
				c-0.4,0-0.8,0-1.2,0C105.4,50.2,104.7,50.2,103.9,50.2z"/>
			<path class="st0" d="M127.6,46.1c0,1,0,1.7,0.1,2.1c0.1,0.4,0.2,0.7,0.4,0.9s0.5,0.4,0.8,0.5s0.8,0.2,1.3,0.3v0.4
				c-1,0-1.7,0-2.2,0s-1,0-1.4,0c-0.8,0-2,0-3.6,0l0,0v-0.4c0.5-0.1,1-0.2,1.3-0.3s0.6-0.3,0.8-0.5c0.2-0.2,0.3-0.5,0.4-0.9
				s0.1-1.1,0.1-2.1v-8.9h-1.4c-1.2,0-2.1,0.2-2.7,0.6c-0.6,0.4-1,1-1.2,2l-0.3-0.1l0.4-3.8h0.2l0.6,0.6c0.6,0,1.5,0,2.7,0
				s2.1,0,2.7,0s1.5,0,2.6,0c1.2,0,2.1,0,2.6,0l0.7-0.6h0.2l0.3,3.8l-0.3,0.1c-0.2-0.9-0.6-1.6-1.2-2c-0.6-0.4-1.4-0.6-2.5-0.6h-1.5
				L127.6,46.1L127.6,46.1z"/>
			<path class="st0" d="M133.4,50.2v-0.4c1-0.1,1.7-0.3,2.1-0.7c0.3-0.3,0.5-1,0.5-2v-7.5c0-1.1-0.2-1.8-0.5-2.2s-1-0.5-1.9-0.6
				v-0.4c0.6,0,1.3,0,2,0s1.8,0,3.1,0c1.6,0,2.8,0,3.5,0s1.4,0,2,0c-0.1,0.4-0.1,0.9-0.2,1.4c0,0.5-0.1,1.1-0.1,1.7h-0.3
				c-0.1-1-0.3-1.6-0.8-2s-1.3-0.6-2.5-0.6h-2.6v5.6h2c1.1,0,1.8-0.1,2.2-0.4c0.4-0.3,0.7-0.8,0.8-1.5h0.3c0,0.4,0,0.9,0,1.7
				s0,1.4,0,1.8v1.1h-0.3c-0.1-0.7-0.3-1.2-0.7-1.4c-0.4-0.3-1.2-0.4-2.2-0.4h-2v3.5c0,1.1,0.2,1.8,0.7,2.1c0.4,0.3,1.3,0.5,2.5,0.5
				s2.1-0.3,2.7-0.9c0.7-0.6,1.1-1.4,1.3-2.6h0.3c0,0.7-0.1,1.4-0.2,2.1c-0.1,0.7-0.3,1.3-0.5,1.9c-0.9,0-1.9,0-3-0.1
				c-1.1,0-2.3,0-3.6,0c-1.2,0-2.1,0-2.8,0C134.6,50.2,134,50.2,133.4,50.2z"/>
			<path class="st0" d="M145.7,50.2v-0.4c0.6-0.1,1.1-0.2,1.4-0.5c0.3-0.3,0.5-0.7,0.7-1.3c0.1-0.4,0.2-1.1,0.4-1.9
				c0.1-0.9,0.3-1.9,0.4-3.1c0.1-1,0.2-1.9,0.3-2.7s0.1-1.2,0.1-1.5c0-0.6-0.2-1-0.5-1.3s-0.9-0.5-1.6-0.6v-0.4c0.3,0,0.6,0,0.9,0
				c0.3,0,0.8,0,1.4,0c0.6,0,1,0,1.3,0s0.5,0,0.8,0v0.3c-0.1,0.1-0.1,0.1-0.2,0.2c0,0.1-0.1,0.1-0.1,0.2c0,0.4,0.3,1.4,1.1,3
				c0,0.1,0,0.1,0.1,0.1l3.1,6.8l3.7-8.3v-0.1c0.3-0.5,0.4-1,0.4-1.3c0-0.1,0-0.2,0-0.3s-0.1-0.2-0.1-0.3v-0.3c0.2,0,0.5,0,0.8,0
				s0.7,0,1.4,0c0.6,0,1.1,0,1.4,0c0.3,0,0.6,0,0.9,0v0.4c-0.7,0-1.2,0.2-1.6,0.6c-0.3,0.4-0.5,1-0.5,1.8c0,0.1,0,0.3,0,0.5
				s0,0.5,0,0.8l0.4,6.3c0.1,1.3,0.3,2,0.6,2.4c0.3,0.3,0.9,0.5,1.7,0.6v0.4c-0.7,0-1.3,0-1.7,0c-0.5,0-0.9,0-1.3,0
				c-0.7,0-1.8,0-3.3,0h-0.2v-0.4c1-0.1,1.6-0.3,2-0.6c0.3-0.3,0.5-0.8,0.5-1.6c0-0.2,0-0.3,0-0.4c0-0.1,0-0.2,0-0.2l-0.5-8.1
				l-3,6.7c-0.3,0.6-0.6,1.2-0.9,2c-0.3,0.8-0.7,1.7-1.2,2.8h-0.2c-0.2-0.6-0.5-1.2-0.8-1.8s-0.4-1-0.4-1l-3.6-8.2l-0.3,2.6
				c-0.1,1.2-0.2,2.2-0.3,3.2s-0.1,1.8-0.1,2.4c0,0.8,0.2,1.3,0.5,1.6s1,0.5,2,0.6v0.4c0,0-0.1,0-0.2,0c-1.3,0-2.2,0-2.8,0
				c-0.3,0-0.7,0-1.1,0C146.8,50.2,146.3,50.2,145.7,50.2z"/>
			<path class="st0" d="M167.6,43.1c0,2,0.5,3.7,1.5,4.9c1,1.3,2.2,1.9,3.7,1.9s2.7-0.6,3.6-1.7c0.9-1.1,1.4-2.6,1.4-4.5
				c0-0.8-0.1-1.6-0.3-2.4c-0.2-0.8-0.5-1.5-0.9-2c-0.5-0.8-1.1-1.4-1.8-1.8c-0.7-0.4-1.4-0.6-2.2-0.6c-1.5,0-2.6,0.6-3.5,1.7
				C168.1,39.7,167.6,41.2,167.6,43.1z M165.3,43.3c0-2.1,0.7-3.8,2-5.1s3.2-1.9,5.4-1.9s4,0.7,5.3,2s2,3.1,2,5.2c0,2.1-0.7,3.8-2,5
				c-1.4,1.3-3.2,1.9-5.4,1.9s-4-0.7-5.3-2C166,47.2,165.3,45.5,165.3,43.3z"/>
			<path class="st0" d="M185.7,43.4c1.4-0.1,2.4-0.4,3.1-1c0.7-0.6,1.1-1.3,1.1-2.3s-0.4-1.8-1.1-2.3c-0.7-0.6-1.8-0.9-3.1-0.9V43.4
				z M181.4,50.2v-0.4c1-0.1,1.7-0.3,2-0.6c0.3-0.4,0.5-1.3,0.5-2.7V40c0-0.8,0-1.4-0.1-1.7s-0.2-0.6-0.4-0.7
				c-0.2-0.1-0.4-0.2-0.6-0.3c-0.3-0.1-0.6-0.2-1.1-0.3v-0.4c1.5,0,3,0,4.5-0.1c0.4,0,0.6,0,0.7,0c1.7,0,3,0.3,3.8,0.8
				c0.8,0.6,1.2,1.4,1.2,2.6c0,0.7-0.2,1.3-0.6,1.9c-0.4,0.5-1,1-1.8,1.3c1.2,2.3,2.4,4,3.4,5.1c1.1,1.1,2.2,1.7,3.4,1.9l-0.1,0.3
				c-0.1,0-0.2,0-0.4,0c-1.7-0.1-2.9-0.3-3.5-0.5c-0.4-0.2-0.7-0.4-1.1-0.8c-0.4-0.4-0.8-0.9-1.3-1.7c-0.3-0.5-0.7-1.1-1.1-1.8
				c-0.4-0.7-0.6-1.1-0.7-1.3c-0.1-0.2-0.3-0.3-0.5-0.4c-0.2-0.1-0.6-0.2-1-0.2l-1-0.1v2.8c0,1.3,0.2,2.2,0.6,2.6
				c0.4,0.4,1.1,0.6,2.3,0.7v0.4c-1,0-1.8,0-2.3,0s-1,0-1.4,0s-0.9,0-1.4,0C183,50.2,182.3,50.2,181.4,50.2z"/>
			<path class="st0" d="M196.3,50.2v-0.4c1-0.1,1.7-0.3,2.1-0.7c0.3-0.3,0.5-1,0.5-2v-7.5c0-1.1-0.2-1.8-0.5-2.2s-1-0.5-1.9-0.6
				v-0.4c0.6,0,1.3,0,2,0s1.8,0,3.1,0c1.6,0,2.8,0,3.5,0s1.4,0,2,0c-0.1,0.4-0.1,0.9-0.2,1.4c0,0.5-0.1,1.1-0.1,1.7h-0.3
				c-0.1-1-0.3-1.6-0.8-2s-1.3-0.6-2.5-0.6h-2.6v5.6h2c1.1,0,1.8-0.1,2.2-0.4c0.4-0.3,0.7-0.8,0.8-1.5h0.3c0,0.4,0,0.9,0,1.7
				s0,1.4,0,1.8v1.1h-0.3c-0.1-0.7-0.3-1.2-0.7-1.4c-0.4-0.3-1.2-0.4-2.2-0.4h-2v3.5c0,1.1,0.2,1.8,0.6,2.1c0.4,0.3,1.3,0.5,2.5,0.5
				s2.1-0.3,2.7-0.9c0.7-0.6,1.1-1.4,1.3-2.6h0.3c0,0.7-0.1,1.4-0.2,2.1c-0.1,0.7-0.3,1.3-0.5,1.9c-0.9,0-1.9,0-3-0.1
				c-1.1,0-2.3,0-3.6,0c-1.2,0-2.1,0-2.8,0C197.5,50.2,196.9,50.2,196.3,50.2z"/>
			<path class="st0" d="M209.3,50.2v-0.4c1-0.1,1.7-0.3,2-0.7s0.5-1.3,0.5-2.6v-6.6c0-1.2-0.2-2-0.5-2.3c-0.3-0.4-1-0.6-2-0.7v-0.4
				c0.4,0,0.8,0,1.3,0s1.2,0,2.1,0c0.9,0,1.7,0,2.1,0c0.5,0,0.9,0,1.3,0v0.4c-1,0.1-1.7,0.3-2,0.7s-0.5,1.1-0.5,2.3v6.6
				c0,1,0,1.6,0.1,1.9c0,0.3,0.1,0.6,0.2,0.8c0.1,0.2,0.3,0.3,0.6,0.3c0.3,0.1,0.9,0.1,1.7,0.1c0.9,0,1.6,0,2-0.1s0.8-0.2,1-0.4
				c0.4-0.2,0.7-0.6,1.1-1c0.3-0.4,0.7-1,1.1-1.7l0.2,0.1l-1.1,3.7c-1.2,0-2.3,0-3.2,0s-1.8,0-2.7,0c-0.5,0-1.4,0-2.5,0
				C210.9,50.2,210,50.2,209.3,50.2z"/>
			<path class="st0" d="M225,43.1c0,2,0.5,3.7,1.5,4.9c1,1.3,2.2,1.9,3.7,1.9s2.7-0.6,3.6-1.7c0.9-1.1,1.4-2.6,1.4-4.5
				c0-0.8-0.1-1.6-0.3-2.4c-0.2-0.8-0.5-1.5-0.9-2c-0.5-0.8-1.1-1.4-1.8-1.8c-0.7-0.4-1.4-0.6-2.2-0.6c-1.5,0-2.6,0.6-3.5,1.7
				C225.5,39.7,225,41.2,225,43.1z M222.7,43.3c0-2.1,0.7-3.8,2-5.1c1.4-1.3,3.2-1.9,5.4-1.9s4,0.7,5.3,2s2,3.1,2,5.2
				c0,2.1-0.7,3.8-2,5c-1.4,1.3-3.2,1.9-5.4,1.9s-4-0.7-5.3-2C223.3,47.2,222.7,45.5,222.7,43.3z"/>
			<path class="st0" d="M239.1,46.1h0.4c0.3,1.3,0.9,2.2,1.6,2.9c0.7,0.7,1.5,1,2.5,1c0.8,0,1.4-0.2,1.9-0.7s0.7-1,0.7-1.7
				c0-0.6-0.2-1.1-0.5-1.6s-0.8-0.9-1.5-1.3l-1.6-0.9c-0.8-0.5-1.5-1-1.9-1.6s-0.6-1.2-0.6-1.9c0-1.1,0.4-2,1.2-2.7s1.9-1.1,3.2-1.1
				c0.6,0,1.1,0.1,1.6,0.2c0.5,0.1,1,0.4,1.5,0.7c-0.1,0.4-0.1,0.8-0.1,1.3s-0.1,1-0.1,1.7H247c-0.1-1.1-0.5-1.9-0.9-2.5
				c-0.5-0.6-1.1-0.8-1.9-0.8c-0.7,0-1.3,0.2-1.8,0.7s-0.7,1-0.7,1.7c0,0.5,0.1,0.9,0.5,1.4c0.3,0.4,0.7,0.8,1.3,1.1l2.3,1.4
				c0.8,0.5,1.4,1,1.7,1.6c0.4,0.6,0.6,1.2,0.6,1.9c0,1.1-0.5,2.1-1.4,2.8c-0.9,0.8-2,1.1-3.4,1.1c-0.7,0-1.4-0.1-2-0.3
				s-1.2-0.4-1.7-0.8c-0.1-0.5-0.2-1.1-0.3-1.7C239.2,47.3,239.1,46.7,239.1,46.1z"/>
		</g>
		<g>
			<path class="st0" d="M68.2,20.7v-5.9c0-1,0-1.7-0.1-2c-0.1-0.4-0.2-0.6-0.5-0.8s-0.6-0.4-1-0.5s-0.8-0.2-1.3-0.2v-0.4
				c0.5,0,1,0,1.6,0s1.4,0,2.5,0s2,0,2.6,0s1.1,0,1.6,0v0.4c-1.3,0-2.1,0.3-2.6,0.8c-0.4,0.5-0.7,1.4-0.7,2.8v5.7
				c0,1.1,0.1,2,0.3,2.6c0.2,0.6,0.5,1.1,0.9,1.5c0.5,0.5,1,0.9,1.8,1.1c0.7,0.3,1.5,0.4,2.4,0.4c1.1,0,2-0.2,2.7-0.6s1.3-1,1.7-1.9
				c0.2-0.4,0.4-1.1,0.4-1.9c0.1-0.8,0.1-2.2,0.1-4s0-3-0.1-3.7s-0.3-1.2-0.5-1.6c-0.3-0.4-0.6-0.7-1.1-0.9s-1.1-0.3-1.8-0.3v-0.4
				c0.4,0,0.9,0,1.3,0c0.5,0,1.2,0,2.1,0c1,0,1.7,0,2.1,0c0.5,0,0.9,0,1.3,0v0.4l0,0c-0.9,0-1.5,0.3-1.9,1c-0.3,0.7-0.5,2.5-0.5,5.3
				c0,0.2,0,0.6,0,1.1c0,2.6-0.2,4.4-0.7,5.3c-0.5,1.1-1.2,1.9-2.3,2.5c-1.1,0.6-2.4,0.8-4,0.8c-1.3,0-2.4-0.2-3.3-0.5
				s-1.6-0.9-2.1-1.5c-0.3-0.5-0.6-1-0.7-1.6C68.3,23,68.2,22,68.2,20.7z"/>
			<path class="st0" d="M84.4,26.9v-0.4c1-0.1,1.7-0.4,2.1-1s0.6-1.9,0.6-3.8V18c0-0.2,0-0.4,0-0.7c0-0.3,0-0.5,0-0.6
				c0-0.6-0.1-1.1-0.2-1.4c-0.1-0.3-0.3-0.6-0.6-0.9c-0.2-0.2-0.5-0.4-0.9-0.6c-0.3-0.1-0.7-0.2-1.2-0.3v-0.4c0.2,0,0.5,0,0.9,0
				s0.7,0,0.9,0c0.2,0,0.5,0,0.8,0c0.4,0,0.6,0,0.8,0l9.8,10.5v-4.5c0-1.7,0-2.8-0.1-3.4s-0.3-1-0.5-1.3s-0.5-0.5-0.8-0.6
				c-0.4-0.1-0.8-0.2-1.3-0.3v-0.4c0.3,0,0.7,0,1.1,0s1,0,1.7,0c0.8,0,1.3,0,1.7,0c0.4,0,0.7,0,1,0v0.4H100c-0.7,0-1.2,0.3-1.5,1
				s-0.4,2-0.4,3.9v4.2c0,1,0,1.8,0,2.6c0,0.8,0,1.5,0.1,2.1H98c-0.4-0.5-0.8-1-1.3-1.5S96,25,95.9,24.9l-8.3-8.8V20
				c0,1.9,0,3.2,0.1,3.8c0.1,0.7,0.2,1.1,0.4,1.4c0.2,0.3,0.4,0.5,0.8,0.7s0.9,0.3,1.6,0.5v0.4c0,0,0,0-0.1,0c-1.3,0-2.4,0-3,0
				c-0.4,0-0.8,0-1.2,0C85.8,26.8,85.2,26.8,84.4,26.9z"/>
			<path class="st0" d="M100.9,26.9v-0.4c1-0.1,1.7-0.3,2-0.6c0.3-0.4,0.5-1.1,0.5-2.4v-7c0-1.2-0.2-2-0.5-2.3c-0.3-0.4-1-0.6-2-0.6
				v-0.4c0.4,0,1,0,1.8,0s1.4,0,1.8,0s1,0,1.7,0c0.8,0,1.3,0,1.7,0v0.4c-1,0.1-1.7,0.3-2,0.6c-0.3,0.4-0.5,1.1-0.5,2.3v7
				c0,1.2,0.2,2,0.5,2.4s1,0.6,2,0.6v0.4c-1,0-1.7,0-2.2,0s-0.9,0-1.3,0s-0.9,0-1.3,0C102.6,26.8,101.8,26.8,100.9,26.9z"/>
			<path class="st0" d="M115.7,27.6l-4.6-11.2c-0.4-1.1-0.9-1.8-1.3-2.2s-0.9-0.6-1.5-0.6v-0.4c0.4,0,0.7,0,1.2,0c0.4,0,1.1,0,1.9,0
				c0.9,0,1.5,0,2,0s0.9,0,1.3,0v0.4c-0.7,0-1.2,0.1-1.5,0.3s-0.5,0.5-0.5,0.8c0,0.2,0.1,0.7,0.3,1.3c0.2,0.6,0.5,1.4,0.8,2.2
				l2.6,6.4l2.6-6.4c0.4-0.9,0.6-1.6,0.8-2.1c0.2-0.5,0.2-1,0.2-1.2c0-0.4-0.2-0.7-0.5-0.9s-0.9-0.3-1.7-0.4v-0.4c0.4,0,0.7,0,1.1,0
				s1,0,1.8,0s1.3,0,1.7,0c0.4,0,0.7,0,1,0v0.4h-0.1c-0.7,0-1.2,0.3-1.7,0.9c-0.5,0.6-1.1,1.8-1.9,3.7l-2.5,6
				c-0.1,0.2-0.3,0.7-0.6,1.6c-0.3,0.8-0.6,1.4-0.8,2h-0.1V27.6z"/>
			<path class="st0" d="M123.7,26.9v-0.4c1-0.1,1.7-0.3,2.1-0.7c0.3-0.3,0.5-1,0.5-2v-7.5c0-1.1-0.2-1.8-0.5-2.2s-1-0.5-1.9-0.6
				v-0.4c0.6,0,1.3,0,2,0s1.8,0,3.1,0c1.6,0,2.8,0,3.5,0s1.4,0,2,0c-0.1,0.4-0.1,0.9-0.2,1.4c0,0.5-0.1,1.1-0.1,1.7H134
				c-0.1-1-0.3-1.6-0.8-2s-1.3-0.6-2.5-0.6h-2.6v5.6h2c1.1,0,1.8-0.1,2.2-0.4s0.7-0.8,0.8-1.5h0.3c0,0.4,0,0.9,0,1.7
				c0,0.8,0,1.4,0,1.8v1.1H133c-0.1-0.7-0.3-1.2-0.7-1.4c-0.4-0.3-1.2-0.4-2.2-0.4h-2v3.5c0,1.1,0.2,1.8,0.7,2.1
				c0.4,0.3,1.3,0.5,2.5,0.5s2.1-0.3,2.7-0.9c0.7-0.6,1.1-1.4,1.3-2.6h0.3c0,0.7-0.1,1.4-0.2,2.1c-0.1,0.7-0.3,1.3-0.5,1.9
				c-0.9,0-1.9,0-3-0.1c-1.1,0-2.3,0-3.6,0c-1.2,0-2.1,0-2.8,0C124.9,26.8,124.2,26.8,123.7,26.9z"/>
			<path class="st0" d="M141.3,20c1.4-0.1,2.4-0.4,3.1-0.9c0.7-0.6,1.1-1.3,1.1-2.3s-0.4-1.8-1.1-2.3c-0.7-0.6-1.8-0.9-3.1-0.9V20z
				 M137,26.9v-0.4c1-0.1,1.7-0.3,2-0.6c0.3-0.4,0.5-1.3,0.5-2.7v-6.6c0-0.8,0-1.4-0.1-1.7s-0.2-0.6-0.4-0.7
				c-0.2-0.1-0.4-0.2-0.6-0.3c-0.3-0.1-0.6-0.2-1.1-0.3v-0.4c1.5,0,3,0,4.5-0.1c0.4,0,0.6,0,0.7,0c1.7,0,3,0.3,3.8,0.8
				c0.8,0.6,1.2,1.4,1.2,2.6c0,0.7-0.2,1.3-0.6,1.9c-0.4,0.5-1,1-1.8,1.3c1.2,2.3,2.4,4,3.4,5.1c1.1,1.1,2.2,1.7,3.4,1.9l-0.1,0.3
				c-0.1,0-0.2,0-0.4,0c-1.7-0.1-2.9-0.3-3.5-0.5c-0.4-0.2-0.8-0.4-1.1-0.8c-0.4-0.4-0.8-0.9-1.3-1.7c-0.3-0.5-0.7-1.1-1.1-1.8
				c-0.4-0.7-0.6-1.1-0.7-1.3c-0.1-0.2-0.3-0.3-0.5-0.4s-0.6-0.2-1-0.2l-1-0.1V23c0,1.3,0.2,2.2,0.6,2.6c0.4,0.4,1.1,0.6,2.3,0.7
				v0.4c-1,0-1.8,0-2.3,0s-1,0-1.4,0s-0.9,0-1.4,0C138.6,26.8,137.9,26.8,137,26.9z"/>
			<path class="st0" d="M152.5,22.7h0.4c0.3,1.3,0.9,2.2,1.6,2.9c0.7,0.7,1.5,1,2.5,1c0.8,0,1.4-0.2,1.9-0.7s0.7-1,0.7-1.7
				c0-0.6-0.2-1.1-0.5-1.6s-0.8-0.9-1.5-1.3l-1.6-0.9c-0.8-0.5-1.5-1-1.9-1.6s-0.6-1.2-0.6-1.9c0-1.1,0.4-2,1.2-2.7s1.9-1.1,3.2-1.1
				c0.6,0,1.1,0.1,1.6,0.2c0.5,0.1,1,0.4,1.5,0.7c-0.1,0.4-0.1,0.8-0.1,1.3s-0.1,1-0.1,1.7h-0.4c-0.1-1.1-0.5-1.9-0.9-2.5
				c-0.5-0.6-1.1-0.8-1.9-0.8c-0.7,0-1.3,0.2-1.8,0.7s-0.7,1-0.7,1.7c0,0.5,0.2,0.9,0.5,1.4c0.3,0.4,0.7,0.8,1.3,1.1l2.3,1.4
				c0.8,0.5,1.4,1,1.7,1.6c0.4,0.6,0.6,1.2,0.6,1.9c0,1.1-0.5,2.1-1.4,2.8c-0.9,0.8-2,1.1-3.4,1.1c-0.7,0-1.4-0.1-2-0.3
				c-0.6-0.2-1.2-0.4-1.7-0.8c-0.1-0.5-0.2-1.1-0.3-1.7C152.6,23.9,152.5,23.3,152.5,22.7z"/>
			<path class="st0" d="M162.7,26.9v-0.4c1-0.1,1.7-0.3,2-0.6c0.4-0.4,0.5-1.1,0.5-2.4v-7c0-1.2-0.2-2-0.5-2.3c-0.3-0.4-1-0.6-2-0.6
				v-0.4c0.4,0,1,0,1.8,0s1.4,0,1.8,0c0.4,0,1,0,1.7,0c0.8,0,1.3,0,1.7,0v0.4c-1,0.1-1.7,0.3-2,0.6c-0.3,0.4-0.5,1.1-0.5,2.3v7
				c0,1.2,0.2,2,0.5,2.4s1,0.6,2,0.6v0.4c-1,0-1.7,0-2.2,0s-0.9,0-1.3,0c-0.4,0-0.9,0-1.3,0C164.4,26.8,163.6,26.8,162.7,26.9z"/>
			<path class="st0" d="M174.8,23.3c0,1.3,0.2,2.1,0.6,2.5c0.4,0.4,1.2,0.6,2.3,0.6c1.5,0,2.8-0.6,3.8-1.7s1.5-2.5,1.5-4.3
				c0-2.2-0.7-3.8-2.1-5.1c-1.4-1.2-3.4-1.8-5.9-1.8h-0.2L174.8,23.3L174.8,23.3z M170.3,26.9v-0.4c1-0.1,1.7-0.3,2-0.6
				c0.3-0.3,0.5-1,0.5-2v-7.7c0-0.9-0.2-1.5-0.5-1.9c-0.3-0.3-0.9-0.6-1.9-0.7v-0.4c1.1,0,2.3,0,3.5,0s1.9,0,2.1,0
				c2.9,0,5.1,0.6,6.7,1.9c1.6,1.2,2.4,2.9,2.4,5.1c0,2.1-0.8,3.8-2.3,5s-3.7,1.8-6.4,1.8c-0.5,0-1.5,0-2.9,0
				C172.3,26.9,171.1,26.9,170.3,26.9z"/>
			<path class="st0" d="M190.3,20.3h4l-2-5.4L190.3,20.3z M185.6,26.9v-0.4c0.4-0.1,0.8-0.2,1-0.3c0.3-0.1,0.5-0.3,0.7-0.5
				c0.3-0.3,0.9-1.8,1.9-4.6c0.2-0.6,0.4-1.1,0.5-1.4l2.2-5.9l-0.1-0.4c0.3-0.1,0.5-0.2,0.7-0.4s0.4-0.4,0.7-0.7l4.3,11.7
				c0.4,1,0.7,1.6,1.1,1.9c0.4,0.3,0.9,0.5,1.5,0.5v0.4c-0.8,0-1.4,0-1.8,0c-0.4,0-0.8,0-1.2,0c-0.3,0-0.7,0-1.1,0c-0.4,0-1,0-1.8,0
				v-0.4c0.5,0,0.9-0.2,1.1-0.4c0.3-0.2,0.4-0.5,0.4-0.8c0-0.2,0-0.3-0.1-0.6c0-0.2-0.1-0.5-0.2-0.8l-1-2.9H190l-0.4,1.1
				c-0.3,0.8-0.5,1.4-0.6,1.9s-0.2,0.9-0.2,1.1c0,0.4,0.2,0.7,0.5,0.9c0.4,0.2,0.9,0.3,1.7,0.3v0.4c0,0,0,0-0.1,0
				c-1.3,0-2.2,0-2.8,0c-0.3,0-0.7,0-1.1,0C186.8,26.8,186.3,26.8,185.6,26.9z"/>
			<path class="st0" d="M204.6,23.3c0,1.3,0.2,2.1,0.6,2.5c0.4,0.4,1.2,0.6,2.3,0.6c1.5,0,2.8-0.6,3.8-1.7s1.5-2.5,1.5-4.3
				c0-2.2-0.7-3.8-2.1-5.1c-1.4-1.2-3.4-1.8-5.9-1.8h-0.2L204.6,23.3L204.6,23.3z M200.1,26.9v-0.4c1-0.1,1.7-0.3,2-0.6
				c0.3-0.3,0.5-1,0.5-2v-7.7c0-0.9-0.2-1.5-0.5-1.9c-0.3-0.3-0.9-0.6-1.9-0.7v-0.4c1.1,0,2.3,0,3.5,0s1.9,0,2.1,0
				c2.9,0,5.1,0.6,6.7,1.9c1.6,1.2,2.4,2.9,2.4,5.1c0,2.1-0.8,3.8-2.3,5s-3.7,1.8-6.4,1.8c-0.5,0-1.5,0-2.9,0
				C202.1,26.9,201,26.9,200.1,26.9z"/>
			<path class="st0" d="M225.1,23.3c0,1.3,0.2,2.1,0.6,2.5c0.4,0.4,1.2,0.6,2.3,0.6c1.5,0,2.8-0.6,3.8-1.7s1.5-2.5,1.5-4.3
				c0-2.2-0.7-3.8-2.1-5.1c-1.4-1.2-3.4-1.8-5.9-1.8h-0.2L225.1,23.3L225.1,23.3z M220.6,26.9v-0.4c1-0.1,1.7-0.3,2-0.6
				c0.3-0.3,0.5-1,0.5-2v-7.7c0-0.9-0.2-1.5-0.5-1.9c-0.3-0.3-0.9-0.6-1.9-0.7v-0.4c1.1,0,2.3,0,3.5,0s1.9,0,2.1,0
				c2.9,0,5.1,0.6,6.7,1.9c1.6,1.2,2.4,2.9,2.4,5.1c0,2.1-0.8,3.8-2.3,5s-3.7,1.8-6.4,1.8c-0.5,0-1.5,0-2.9,0
				C222.6,26.9,221.5,26.9,220.6,26.9z"/>
			<path class="st0" d="M235.6,26.9v-0.4c1-0.1,1.7-0.3,2.1-0.7c0.3-0.3,0.5-1,0.5-2v-7.5c0-1.1-0.2-1.8-0.5-2.2s-1-0.5-1.9-0.6
				v-0.4c0.6,0,1.3,0,2,0s1.8,0,3.1,0c1.6,0,2.8,0,3.5,0s1.4,0,2,0c-0.1,0.4-0.1,0.9-0.2,1.4c0,0.5-0.1,1.1-0.1,1.7H246
				c-0.1-1-0.3-1.6-0.8-2s-1.3-0.6-2.5-0.6h-2.6v5.6h2c1.1,0,1.8-0.1,2.2-0.4s0.7-0.8,0.8-1.5h0.3c0,0.4,0,0.9,0,1.7
				c0,0.8,0,1.4,0,1.8v1.1H245c-0.1-0.7-0.3-1.2-0.7-1.4c-0.4-0.3-1.2-0.4-2.2-0.4h-2v3.5c0,1.1,0.2,1.8,0.7,2.1
				c0.4,0.3,1.3,0.5,2.5,0.5s2.1-0.3,2.7-0.9c0.7-0.6,1.1-1.4,1.3-2.6h0.3c0,0.7-0.1,1.4-0.2,2.1c-0.1,0.7-0.3,1.3-0.5,1.9
				c-0.9,0-1.9,0-3-0.1c-1.1,0-2.3,0-3.6,0c-1.2,0-2.1,0-2.8,0C236.8,26.8,236.2,26.8,235.6,26.9z"/>
		</g>
	</g>
</g>
<g id="Gracias_Mobile_1_">
</g>
<g id="Landing_iPad_1_">
</g>
<g id="Gracias_iPad_1_">
</g>
<g id="Landing_Desktop_1_">
</g>
<g id="Gracias_Desktop_1_">
</g>
<g>
	<g>
		<path d="M-35,124.6c-1.2-2.4-1.7-5.6,0.8-9.1c2-2.8,4.1-5.1,2.5-10.4c3.1,3.6,4.1,8,2.9,11.3C-30.4,120.3-33.8,121-35,124.6z"/>
		<path d="M-43.3,125.7c-6.9-1-14.1-9.9-6.9-19.5c6.9-9.1,11.3-13.5,6.6-20.3c7.1,6,4,13.5-1.7,22.3
			C-48.3,112.8-49.8,120.2-43.3,125.7z"/>
		<path d="M-63.4,129.5c0,0,2.8-0.5,10.2-2.4c3.9-1,8.3-0.3,10.1,1.5c1.6,1.7,2.2,3.7,2.3,4c0.2,0.5,0.4,1.6,0.4,1.6
			s0.6-1.7,0.9-2.1c0.1-0.2,1-0.2,1.6-1.9c0.5-1.2,0-2.9-2.2-4.5c-4.8-3.3-5.3-11.4-1.2-17.4c5.1-7.5,5.8-11.5,3.5-15.1
			c8,7.2,3.4,14.8,0.7,18.7c-2.3,3.3-3.1,6.2-2.3,9.4c0.1,0.7,0.3,1.8,0.9,2.9c0.6,0.9,1.5,3.4,3,2.8c2.4-0.9,4.7-0.3,8.7,0.5
			c6.7,1.4,9.3,1.9,9.3,1.9l5.1,6.9c0,0-12.3-2.4-16.7-3c-4.9-0.7-9.6,0.1-11.2,2.9c-1.6-2.8-6.2-3.6-10.9-3c-4.3,0.6-16.9,3-16.9,3
			L-63.4,129.5z"/>
	</g>
	<g>
		<g>
			<path d="M193.1,135.1v-0.4c0.7-0.1,1.2-0.3,1.6-0.6c0.4-0.3,0.6-0.8,0.8-1.6c0.1-0.5,0.3-1.3,0.4-2.3c0.2-1,0.3-2.2,0.5-3.7
				c0.1-1.2,0.3-2.3,0.4-3.2c0.1-0.9,0.1-1.5,0.1-1.7c0-0.7-0.2-1.2-0.6-1.6c-0.4-0.4-1-0.6-1.9-0.7v-0.4c0.3,0,0.7,0,1,0
				c0.4,0,0.9,0,1.6,0s1.2,0,1.6,0c0.3,0,0.6,0,0.9,0v0.3c-0.1,0.1-0.1,0.2-0.2,0.3c0,0.1-0.1,0.2-0.1,0.2c0,0.5,0.4,1.7,1.2,3.5
				c0,0.1,0.1,0.1,0.1,0.2l3.6,8l4.4-9.8c0,0,0-0.1,0.1-0.1c0.3-0.6,0.5-1.1,0.5-1.6c0-0.2,0-0.3-0.1-0.4c0-0.1-0.1-0.2-0.2-0.3
				v-0.3c0.3,0,0.6,0,0.9,0s0.9,0,1.6,0s1.3,0,1.7,0s0.7,0,1.1,0v0.4c-0.9,0-1.5,0.3-1.9,0.7c-0.4,0.4-0.6,1.1-0.6,2.1
				c0,0.1,0,0.3,0,0.6c0,0.3,0,0.6,0.1,1l0.5,7.5c0.1,1.5,0.3,2.4,0.7,2.8c0.4,0.4,1,0.6,2,0.7v0.4c-0.8,0-1.5,0-2,0s-1.1,0-1.6,0
				c-0.8,0-2.1,0-3.9,0h-0.3v-0.4c1.2-0.1,1.9-0.4,2.3-0.7c0.4-0.4,0.6-1,0.6-1.9c0-0.2,0-0.3,0-0.4c0-0.1,0-0.2,0-0.3l-0.6-9.6
				l-3.6,7.8c-0.3,0.7-0.7,1.4-1,2.4c-0.4,0.9-0.9,2-1.4,3.3h-0.2c-0.3-0.7-0.6-1.4-0.9-2.1c-0.3-0.7-0.5-1.1-0.5-1.2l-4.3-9.6
				l-0.3,3.1c-0.1,1.4-0.3,2.6-0.3,3.8c-0.1,1.2-0.1,2.1-0.1,2.8c0,0.9,0.2,1.5,0.6,1.9c0.4,0.3,1.1,0.6,2.3,0.8v0.4
				c0,0-0.1,0-0.2,0c-1.5,0-2.6,0-3.3,0c-0.4,0-0.8,0-1.3,0C194.4,135.1,193.8,135.1,193.1,135.1z"/>
			<path d="M218.4,128c0,2,0.5,3.7,1.5,4.9c1,1.3,2.2,1.9,3.7,1.9s2.7-0.6,3.6-1.7c0.9-1.1,1.4-2.6,1.4-4.5c0-0.8-0.1-1.6-0.3-2.4
				s-0.5-1.5-0.9-2c-0.5-0.8-1.1-1.4-1.8-1.8c-0.7-0.4-1.4-0.6-2.2-0.6c-1.5,0-2.6,0.6-3.5,1.7C218.9,124.6,218.4,126.1,218.4,128z
				 M216.1,128.2c0-2.1,0.7-3.8,2-5.1c1.4-1.3,3.2-1.9,5.4-1.9c2.2,0,4,0.7,5.3,2c1.3,1.3,2,3.1,2,5.2c0,2.1-0.7,3.8-2,5
				c-1.4,1.3-3.2,1.9-5.4,1.9c-2.2,0-4-0.7-5.3-2C216.7,132.1,216.1,130.4,216.1,128.2z"/>
			<path d="M231.6,135.1v-0.4c1-0.1,1.7-0.4,2.1-1c0.4-0.6,0.6-1.9,0.6-3.8v-3.8c0-0.2,0-0.4,0-0.7c0-0.3,0-0.5,0-0.6
				c0-0.6-0.1-1.1-0.2-1.4c-0.1-0.3-0.3-0.6-0.6-0.9c-0.2-0.2-0.5-0.4-0.9-0.6c-0.3-0.1-0.7-0.2-1.2-0.3v-0.4c0.2,0,0.5,0,0.9,0
				c0.4,0,0.7,0,0.9,0s0.5,0,0.8,0c0.4,0,0.6,0,0.8,0l9.8,10.5v-4.5c0-1.7,0-2.8-0.1-3.4c-0.1-0.6-0.3-1-0.5-1.3
				c-0.2-0.3-0.5-0.5-0.8-0.6c-0.4-0.1-0.8-0.2-1.3-0.3v-0.4c0.3,0,0.7,0,1.1,0c0.4,0,1,0,1.7,0c0.8,0,1.3,0,1.7,0c0.4,0,0.7,0,1,0
				v0.4h-0.2c-0.7,0-1.2,0.3-1.5,1c-0.3,0.7-0.4,2-0.4,3.9v4.2c0,1,0,1.8,0,2.6s0,1.5,0.1,2.1h-0.1c-0.4-0.5-0.8-1-1.3-1.5
				s-0.7-0.8-0.8-0.9l-8.3-8.8v3.9c0,1.9,0,3.2,0.1,3.8c0.1,0.7,0.2,1.1,0.4,1.4c0.2,0.3,0.4,0.5,0.8,0.7c0.4,0.2,0.9,0.3,1.6,0.5
				v0.4c0,0,0,0-0.1,0c-1.3,0-2.4,0-3,0c-0.4,0-0.8,0-1.2,0C233.1,135.1,232.4,135.1,231.6,135.1z"/>
			<path d="M255.3,131c0,1,0,1.7,0.1,2.1c0.1,0.4,0.2,0.7,0.4,0.9s0.5,0.4,0.8,0.5c0.3,0.1,0.8,0.2,1.3,0.3v0.4c-1,0-1.7,0-2.2,0
				s-1,0-1.4,0c-0.8,0-2,0-3.6,0l0,0v-0.4c0.5-0.1,1-0.2,1.3-0.3c0.3-0.1,0.6-0.3,0.8-0.5c0.2-0.2,0.3-0.5,0.4-0.9
				c0.1-0.4,0.1-1.1,0.1-2.1v-8.9h-1.4c-1.2,0-2.1,0.2-2.7,0.6c-0.6,0.4-1,1-1.2,2l-0.3-0.1l0.4-3.8h0.2l0.6,0.6c0.6,0,1.5,0,2.7,0
				s2.1,0,2.7,0c0.6,0,1.5,0,2.6,0c1.2,0,2.1,0,2.6,0l0.7-0.6h0.2l0.3,3.8l-0.3,0.1c-0.2-0.9-0.6-1.6-1.2-2
				c-0.6-0.4-1.4-0.6-2.5-0.6h-1.5L255.3,131L255.3,131z"/>
			<path d="M261.1,135.1v-0.4c1-0.1,1.7-0.3,2.1-0.7c0.3-0.3,0.5-1,0.5-2v-7.5c0-1.1-0.2-1.8-0.5-2.2c-0.3-0.4-1-0.5-1.9-0.6v-0.4
				c0.6,0,1.3,0,2,0c0.7,0,1.8,0,3.1,0c1.6,0,2.8,0,3.5,0c0.7,0,1.4,0,2,0c-0.1,0.4-0.1,0.9-0.2,1.4c0,0.5-0.1,1.1-0.1,1.7h-0.3
				c-0.1-1-0.3-1.6-0.8-2s-1.3-0.6-2.5-0.6h-2.6v5.6h2c1.1,0,1.8-0.1,2.2-0.4c0.4-0.3,0.7-0.8,0.8-1.5h0.3c0,0.4,0,0.9,0,1.7
				c0,0.8,0,1.4,0,1.8v1.1h-0.3c-0.1-0.7-0.3-1.2-0.7-1.4c-0.4-0.3-1.2-0.4-2.2-0.4h-2v3.5c0,1.1,0.2,1.8,0.7,2.1
				c0.4,0.3,1.3,0.5,2.5,0.5c1.2,0,2.1-0.3,2.7-0.9c0.7-0.6,1.1-1.4,1.3-2.6h0.3c0,0.7-0.1,1.4-0.2,2.1c-0.1,0.7-0.3,1.3-0.5,1.9
				c-0.9,0-1.9,0-3-0.1c-1.1,0-2.3,0-3.6,0c-1.2,0-2.1,0-2.8,0C262.3,135.1,261.7,135.1,261.1,135.1z"/>
			<path d="M273.4,135.1v-0.4c0.6-0.1,1.1-0.2,1.4-0.5c0.3-0.3,0.5-0.7,0.7-1.3c0.1-0.4,0.2-1.1,0.4-1.9c0.1-0.9,0.3-1.9,0.4-3.1
				c0.1-1,0.2-1.9,0.3-2.7c0.1-0.8,0.1-1.2,0.1-1.5c0-0.6-0.2-1-0.5-1.3c-0.3-0.3-0.9-0.5-1.6-0.6v-0.4c0.3,0,0.6,0,0.9,0
				c0.3,0,0.8,0,1.4,0c0.6,0,1,0,1.3,0c0.3,0,0.5,0,0.8,0v0.3c-0.1,0.1-0.1,0.1-0.2,0.2c0,0.1-0.1,0.1-0.1,0.2c0,0.4,0.3,1.4,1.1,3
				c0,0.1,0,0.1,0.1,0.1l3.1,6.8l3.7-8.3v-0.1c0.3-0.5,0.4-1,0.4-1.3c0-0.1,0-0.2,0-0.3s-0.1-0.2-0.1-0.3v-0.3c0.2,0,0.5,0,0.8,0
				c0.3,0,0.7,0,1.4,0c0.6,0,1.1,0,1.4,0s0.6,0,0.9,0v0.4c-0.7,0-1.2,0.2-1.6,0.6c-0.3,0.4-0.5,1-0.5,1.8c0,0.1,0,0.3,0,0.5
				c0,0.2,0,0.5,0,0.8l0.4,6.3c0.1,1.3,0.3,2,0.6,2.4c0.3,0.3,0.9,0.5,1.7,0.6v0.4c-0.7,0-1.3,0-1.7,0c-0.5,0-0.9,0-1.3,0
				c-0.7,0-1.8,0-3.3,0h-0.2v-0.4c1-0.1,1.6-0.3,2-0.6c0.3-0.3,0.5-0.8,0.5-1.6c0-0.2,0-0.3,0-0.4c0-0.1,0-0.2,0-0.2l-0.5-8.1
				l-3,6.7c-0.3,0.6-0.6,1.2-0.9,2s-0.7,1.7-1.2,2.8h-0.2c-0.2-0.6-0.5-1.2-0.8-1.8c-0.3-0.6-0.4-1-0.4-1l-3.6-8.2l-0.3,2.6
				c-0.1,1.2-0.2,2.2-0.3,3.2s-0.1,1.8-0.1,2.4c0,0.8,0.2,1.3,0.5,1.6c0.3,0.3,1,0.5,2,0.6v0.4c0,0-0.1,0-0.2,0c-1.3,0-2.2,0-2.8,0
				c-0.3,0-0.7,0-1.1,0C274.5,135.1,274,135.1,273.4,135.1z"/>
			<path d="M295.3,128c0,2,0.5,3.7,1.5,4.9c1,1.3,2.2,1.9,3.7,1.9s2.7-0.6,3.6-1.7s1.4-2.6,1.4-4.5c0-0.8-0.1-1.6-0.3-2.4
				c-0.2-0.8-0.5-1.5-0.9-2c-0.5-0.8-1.1-1.4-1.8-1.8c-0.7-0.4-1.4-0.6-2.2-0.6c-1.5,0-2.6,0.6-3.5,1.7
				C295.8,124.6,295.3,126.1,295.3,128z M293,128.2c0-2.1,0.7-3.8,2-5.1c1.3-1.3,3.2-1.9,5.4-1.9c2.2,0,4,0.7,5.3,2
				c1.3,1.3,2,3.1,2,5.2c0,2.1-0.7,3.8-2,5c-1.4,1.3-3.2,1.9-5.4,1.9c-2.2,0-4-0.7-5.3-2C293.7,132.1,293,130.4,293,128.2z"/>
			<path d="M313.4,128.3c1.4-0.1,2.4-0.4,3.1-1s1.1-1.3,1.1-2.3s-0.4-1.8-1.1-2.3c-0.7-0.6-1.8-0.9-3.1-0.9V128.3z M309.1,135.1
				v-0.4c1-0.1,1.7-0.3,2-0.6c0.3-0.4,0.5-1.3,0.5-2.7v-6.5c0-0.8,0-1.4-0.1-1.7c-0.1-0.3-0.2-0.6-0.4-0.7c-0.2-0.1-0.4-0.2-0.6-0.3
				c-0.3-0.1-0.6-0.2-1.1-0.3v-0.4c1.5,0,3,0,4.5-0.1c0.4,0,0.6,0,0.7,0c1.7,0,3,0.3,3.8,0.8c0.8,0.6,1.2,1.4,1.2,2.6
				c0,0.7-0.2,1.3-0.6,1.9c-0.4,0.5-1,1-1.8,1.3c1.2,2.3,2.4,4,3.4,5.1c1.1,1.1,2.2,1.7,3.4,1.9l-0.1,0.3c-0.1,0-0.2,0-0.4,0
				c-1.7-0.1-2.9-0.3-3.5-0.5c-0.4-0.2-0.7-0.4-1.1-0.8s-0.8-0.9-1.3-1.7c-0.3-0.5-0.7-1.1-1.1-1.8c-0.4-0.7-0.6-1.1-0.7-1.3
				c-0.1-0.2-0.3-0.3-0.5-0.4c-0.2-0.1-0.6-0.2-1-0.2l-1-0.1v2.8c0,1.3,0.2,2.2,0.6,2.6c0.4,0.4,1.1,0.6,2.3,0.7v0.4
				c-1,0-1.8,0-2.3,0s-1,0-1.4,0s-0.9,0-1.4,0C310.7,135.1,310,135.1,309.1,135.1z"/>
			<path d="M324,135.1v-0.4c1-0.1,1.7-0.3,2.1-0.7c0.3-0.3,0.5-1,0.5-2v-7.5c0-1.1-0.2-1.8-0.5-2.2c-0.3-0.4-1-0.5-1.9-0.6v-0.4
				c0.6,0,1.3,0,2,0c0.7,0,1.8,0,3.1,0c1.6,0,2.8,0,3.5,0c0.7,0,1.4,0,2,0c-0.1,0.4-0.1,0.9-0.2,1.4c0,0.5-0.1,1.1-0.1,1.7h-0.3
				c-0.1-1-0.3-1.6-0.8-2s-1.3-0.6-2.5-0.6h-2.6v5.6h2c1.1,0,1.8-0.1,2.2-0.4c0.4-0.3,0.7-0.8,0.8-1.5h0.3c0,0.4,0,0.9,0,1.7
				c0,0.8,0,1.4,0,1.8v1.1h-0.3c-0.1-0.7-0.3-1.2-0.7-1.4c-0.4-0.3-1.2-0.4-2.2-0.4h-2v3.5c0,1.1,0.2,1.8,0.6,2.1
				c0.4,0.3,1.3,0.5,2.5,0.5c1.2,0,2.1-0.3,2.7-0.9c0.7-0.6,1.1-1.4,1.3-2.6h0.3c0,0.7-0.1,1.4-0.2,2.1c-0.1,0.7-0.3,1.3-0.5,1.9
				c-0.9,0-1.9,0-3-0.1c-1.1,0-2.3,0-3.6,0c-1.2,0-2.1,0-2.8,0C325.2,135.1,324.6,135.1,324,135.1z"/>
			<path d="M337,135.1v-0.4c1-0.1,1.7-0.3,2-0.7c0.3-0.4,0.5-1.3,0.5-2.6v-6.6c0-1.2-0.2-2-0.5-2.3c-0.3-0.4-1-0.6-2-0.7v-0.4
				c0.4,0,0.8,0,1.3,0s1.2,0,2.1,0c0.9,0,1.7,0,2.1,0c0.5,0,0.9,0,1.3,0v0.4c-1,0.1-1.7,0.3-2,0.7c-0.3,0.4-0.5,1.1-0.5,2.3v6.6
				c0,1,0,1.6,0.1,1.9c0,0.3,0.1,0.6,0.2,0.8s0.3,0.3,0.6,0.3c0.3,0.1,0.9,0.1,1.7,0.1c0.9,0,1.6,0,2-0.1c0.4-0.1,0.8-0.2,1-0.4
				c0.4-0.2,0.7-0.6,1.1-1c0.3-0.4,0.7-1,1.1-1.7l0.2,0.1l-1.1,3.7c-1.2,0-2.3,0-3.2,0s-1.8,0-2.7,0c-0.5,0-1.4,0-2.5,0
				C338.6,135.1,337.7,135.1,337,135.1z"/>
			<path d="M352.7,128c0,2,0.5,3.7,1.5,4.9c1,1.3,2.2,1.9,3.7,1.9s2.7-0.6,3.6-1.7s1.4-2.6,1.4-4.5c0-0.8-0.1-1.6-0.3-2.4
				c-0.2-0.8-0.5-1.5-0.9-2c-0.5-0.8-1.1-1.4-1.8-1.8c-0.7-0.4-1.4-0.6-2.2-0.6c-1.5,0-2.6,0.6-3.5,1.7
				C353.2,124.6,352.7,126.1,352.7,128z M350.4,128.2c0-2.1,0.7-3.8,2-5.1c1.4-1.3,3.2-1.9,5.4-1.9c2.2,0,4,0.7,5.3,2
				c1.3,1.3,2,3.1,2,5.2c0,2.1-0.7,3.8-2,5c-1.4,1.3-3.2,1.9-5.4,1.9c-2.2,0-4-0.7-5.3-2C351,132.1,350.4,130.4,350.4,128.2z"/>
			<path d="M366.8,131h0.4c0.3,1.3,0.9,2.2,1.6,2.9c0.7,0.7,1.5,1,2.5,1c0.8,0,1.4-0.2,1.9-0.7s0.7-1,0.7-1.7c0-0.6-0.2-1.1-0.5-1.6
				c-0.3-0.5-0.8-0.9-1.5-1.3l-1.6-0.9c-0.8-0.5-1.5-1-1.9-1.6s-0.6-1.2-0.6-1.9c0-1.1,0.4-2,1.2-2.7c0.8-0.7,1.9-1.1,3.2-1.1
				c0.6,0,1.1,0.1,1.6,0.2c0.5,0.1,1,0.4,1.5,0.7c-0.1,0.4-0.1,0.8-0.1,1.3s-0.1,1-0.1,1.7h-0.4c-0.1-1.1-0.5-1.9-0.9-2.5
				c-0.5-0.6-1.1-0.8-1.9-0.8c-0.7,0-1.3,0.2-1.8,0.7s-0.7,1-0.7,1.7c0,0.5,0.1,0.9,0.5,1.4c0.3,0.4,0.7,0.8,1.3,1.1l2.3,1.4
				c0.8,0.5,1.4,1,1.7,1.6c0.4,0.6,0.6,1.2,0.6,1.9c0,1.1-0.5,2.1-1.4,2.8c-0.9,0.8-2,1.1-3.4,1.1c-0.7,0-1.4-0.1-2-0.3
				s-1.2-0.4-1.7-0.8c-0.1-0.5-0.2-1.1-0.3-1.7C366.9,132.2,366.8,131.6,366.8,131z"/>
		</g>
		<g>
			<path d="M4.5,128.8v-5.9c0-1,0-1.7-0.1-2c-0.1-0.4-0.2-0.6-0.5-0.8s-0.6-0.4-1-0.5s-0.8-0.2-1.3-0.2V119c0.5,0,1,0,1.6,0
				s1.4,0,2.5,0s2,0,2.6,0s1.1,0,1.6,0v0.4c-1.3,0-2.1,0.3-2.6,0.8c-0.4,0.5-0.7,1.4-0.7,2.8v5.7c0,1.1,0.1,2,0.3,2.6
				c0.2,0.6,0.5,1.1,0.9,1.5c0.5,0.5,1,0.9,1.8,1.1c0.7,0.3,1.5,0.4,2.4,0.4c1.1,0,2-0.2,2.7-0.6c0.7-0.4,1.3-1,1.7-1.9
				c0.2-0.4,0.4-1.1,0.4-1.9c0.1-0.8,0.1-2.2,0.1-4c0-1.8,0-3-0.1-3.7c-0.1-0.7-0.3-1.2-0.5-1.6c-0.3-0.4-0.6-0.7-1.1-0.9
				c-0.5-0.2-1.1-0.3-1.8-0.3V119c0.4,0,0.9,0,1.3,0c0.5,0,1.2,0,2.1,0c1,0,1.7,0,2.1,0c0.5,0,0.9,0,1.3,0v0.4l0,0
				c-0.9,0-1.5,0.3-1.9,1c-0.3,0.7-0.5,2.5-0.5,5.3c0,0.2,0,0.6,0,1.1c0,2.6-0.2,4.4-0.7,5.3c-0.5,1.1-1.2,1.9-2.3,2.5
				c-1.1,0.6-2.4,0.8-4,0.8c-1.3,0-2.4-0.2-3.3-0.5s-1.6-0.9-2.1-1.5c-0.3-0.5-0.6-1-0.7-1.6C4.6,131.1,4.5,130.1,4.5,128.8z"/>
			<path d="M20.7,135v-0.4c1-0.1,1.7-0.4,2.1-1s0.6-1.9,0.6-3.8v-3.7c0-0.2,0-0.4,0-0.7c0-0.3,0-0.5,0-0.6c0-0.6-0.1-1.1-0.2-1.4
				c-0.1-0.3-0.3-0.6-0.6-0.9c-0.2-0.2-0.5-0.4-0.9-0.6c-0.3-0.1-0.7-0.2-1.2-0.3v-0.4c0.2,0,0.5,0,0.9,0s0.7,0,0.9,0
				c0.2,0,0.5,0,0.8,0c0.4,0,0.6,0,0.8,0l9.8,10.5v-4.5c0-1.7,0-2.8-0.1-3.4s-0.3-1-0.5-1.3c-0.2-0.3-0.5-0.5-0.8-0.6
				c-0.4-0.1-0.8-0.2-1.3-0.3v-0.4c0.3,0,0.7,0,1.1,0s1,0,1.7,0c0.8,0,1.3,0,1.7,0c0.4,0,0.7,0,1,0v0.4h-0.2c-0.7,0-1.2,0.3-1.5,1
				c-0.3,0.7-0.4,2-0.4,3.9v4.2c0,1,0,1.8,0,2.6s0,1.5,0.1,2.1h-0.2c-0.4-0.5-0.8-1-1.3-1.5s-0.7-0.8-0.8-0.9l-8.3-8.8v3.9
				c0,1.9,0,3.2,0.1,3.8c0.1,0.7,0.2,1.1,0.4,1.4c0.2,0.3,0.4,0.5,0.8,0.7s0.9,0.3,1.6,0.5v0.4c0,0,0,0-0.1,0c-1.3,0-2.4,0-3,0
				c-0.4,0-0.8,0-1.2,0S21.5,134.9,20.7,135z"/>
			<path d="M37.2,135v-0.4c1-0.1,1.7-0.3,2-0.6c0.3-0.4,0.5-1.1,0.5-2.4v-7c0-1.2-0.2-2-0.5-2.3c-0.3-0.4-1-0.6-2-0.6v-0.4
				c0.4,0,1,0,1.8,0s1.4,0,1.8,0s1,0,1.7,0c0.8,0,1.3,0,1.7,0v0.4c-1,0.1-1.7,0.3-2,0.6c-0.3,0.4-0.5,1.1-0.5,2.3v7
				c0,1.2,0.2,2,0.5,2.4c0.3,0.4,1,0.6,2,0.6v0.4c-1,0-1.7,0-2.2,0s-0.9,0-1.3,0s-0.9,0-1.3,0C38.9,134.9,38.1,134.9,37.2,135z"/>
			<path d="M52,135.7l-4.6-11.2c-0.4-1.1-0.9-1.8-1.3-2.2c-0.4-0.4-0.9-0.6-1.5-0.6v-0.4c0.4,0,0.7,0,1.2,0c0.4,0,1.1,0,1.9,0
				c0.9,0,1.5,0,2,0s0.9,0,1.3,0v0.4c-0.7,0-1.2,0.1-1.5,0.3c-0.3,0.2-0.5,0.5-0.5,0.8c0,0.2,0.1,0.7,0.3,1.3
				c0.2,0.6,0.5,1.4,0.8,2.2l2.6,6.4l2.6-6.4c0.4-0.9,0.6-1.6,0.8-2.1c0.2-0.5,0.2-1,0.2-1.2c0-0.4-0.2-0.7-0.5-0.9
				c-0.3-0.2-0.9-0.3-1.7-0.4v-0.4c0.4,0,0.7,0,1.1,0s1,0,1.8,0s1.3,0,1.7,0c0.4,0,0.7,0,1,0v0.4h-0.1c-0.7,0-1.2,0.3-1.7,0.9
				s-1.1,1.8-1.9,3.7l-2.5,6c-0.1,0.2-0.3,0.7-0.6,1.6c-0.3,0.8-0.6,1.4-0.8,2H52V135.7z"/>
			<path d="M60,135v-0.4c1-0.1,1.7-0.3,2.1-0.7c0.3-0.3,0.5-1,0.5-2v-7.5c0-1.1-0.2-1.8-0.5-2.2s-1-0.5-1.9-0.6v-0.4
				c0.6,0,1.3,0,2,0s1.8,0,3.1,0c1.6,0,2.8,0,3.5,0s1.4,0,2,0c-0.1,0.4-0.1,0.9-0.2,1.4c0,0.5-0.1,1.1-0.1,1.7h-0.2
				c-0.1-1-0.3-1.6-0.8-2s-1.3-0.6-2.5-0.6h-2.6v5.6h2c1.1,0,1.8-0.1,2.2-0.4c0.4-0.3,0.7-0.8,0.8-1.5h0.3c0,0.4,0,0.9,0,1.7
				c0,0.8,0,1.4,0,1.8v1.1h-0.4c-0.1-0.7-0.3-1.2-0.7-1.4c-0.4-0.3-1.2-0.4-2.2-0.4h-2v3.5c0,1.1,0.2,1.8,0.7,2.1
				c0.4,0.3,1.3,0.5,2.5,0.5s2.1-0.3,2.7-0.9c0.7-0.6,1.1-1.4,1.3-2.6h0.3c0,0.7-0.1,1.4-0.2,2.1c-0.1,0.7-0.3,1.3-0.5,1.9
				c-0.9,0-1.9,0-3-0.1c-1.1,0-2.3,0-3.6,0c-1.2,0-2.1,0-2.8,0C61.2,134.9,60.5,134.9,60,135z"/>
			<path d="M77.6,128.1c1.4-0.1,2.4-0.4,3.1-0.9c0.7-0.6,1.1-1.3,1.1-2.3s-0.4-1.8-1.1-2.3c-0.7-0.6-1.8-0.9-3.1-0.9V128.1z
				 M73.3,135v-0.4c1-0.1,1.7-0.3,2-0.6c0.3-0.4,0.5-1.3,0.5-2.7v-6.6c0-0.8,0-1.4-0.1-1.7c-0.1-0.3-0.2-0.6-0.4-0.7
				s-0.4-0.2-0.6-0.3c-0.3-0.1-0.6-0.2-1.1-0.3v-0.4c1.5,0,3,0,4.5-0.1c0.4,0,0.6,0,0.7,0c1.7,0,3,0.3,3.8,0.8
				c0.8,0.6,1.2,1.4,1.2,2.6c0,0.7-0.2,1.3-0.6,1.9c-0.4,0.5-1,1-1.8,1.3c1.2,2.3,2.4,4,3.4,5.1c1.1,1.1,2.2,1.7,3.4,1.9l-0.1,0.3
				c-0.1,0-0.2,0-0.4,0c-1.7-0.1-2.9-0.3-3.5-0.5c-0.4-0.2-0.8-0.4-1.1-0.8c-0.4-0.4-0.8-0.9-1.3-1.7c-0.3-0.5-0.7-1.1-1.1-1.8
				c-0.4-0.7-0.6-1.1-0.7-1.3c-0.1-0.2-0.3-0.3-0.5-0.4c-0.2-0.1-0.6-0.2-1-0.2l-1-0.1v2.8c0,1.3,0.2,2.2,0.6,2.6
				c0.4,0.4,1.1,0.6,2.3,0.7v0.4c-1,0-1.8,0-2.3,0s-1,0-1.4,0s-0.9,0-1.4,0C74.9,134.9,74.2,134.9,73.3,135z"/>
			<path d="M88.8,130.8h0.4c0.3,1.3,0.9,2.2,1.6,2.9c0.7,0.7,1.5,1,2.5,1c0.8,0,1.4-0.2,1.9-0.7s0.7-1,0.7-1.7
				c0-0.6-0.2-1.1-0.5-1.6s-0.8-0.9-1.5-1.3l-1.6-0.9c-0.8-0.5-1.5-1-1.9-1.6c-0.4-0.6-0.6-1.2-0.6-1.9c0-1.1,0.4-2,1.2-2.7
				c0.8-0.7,1.9-1.1,3.2-1.1c0.6,0,1.1,0.1,1.6,0.2c0.5,0.1,1,0.4,1.5,0.7c-0.1,0.4-0.1,0.8-0.1,1.3s-0.1,1-0.1,1.7h-0.4
				c-0.1-1.1-0.5-1.9-0.9-2.5c-0.5-0.6-1.1-0.8-1.9-0.8c-0.7,0-1.3,0.2-1.8,0.7s-0.7,1-0.7,1.7c0,0.5,0.2,0.9,0.5,1.4
				c0.3,0.4,0.7,0.8,1.3,1.1l2.3,1.4c0.8,0.5,1.4,1,1.7,1.6c0.4,0.6,0.6,1.2,0.6,1.9c0,1.1-0.5,2.1-1.4,2.8c-0.9,0.8-2,1.1-3.4,1.1
				c-0.7,0-1.4-0.1-2-0.3c-0.6-0.2-1.2-0.4-1.7-0.8c-0.1-0.5-0.2-1.1-0.3-1.7C88.9,132,88.8,131.4,88.8,130.8z"/>
			<path d="M99,135v-0.4c1-0.1,1.7-0.3,2-0.6c0.4-0.4,0.5-1.1,0.5-2.4v-7c0-1.2-0.2-2-0.5-2.3c-0.3-0.4-1-0.6-2-0.6v-0.4
				c0.4,0,1,0,1.8,0s1.4,0,1.8,0c0.4,0,1,0,1.7,0c0.8,0,1.3,0,1.7,0v0.4c-1,0.1-1.7,0.3-2,0.6c-0.3,0.4-0.5,1.1-0.5,2.3v7
				c0,1.2,0.2,2,0.5,2.4c0.3,0.4,1,0.6,2,0.6v0.4c-1,0-1.7,0-2.2,0s-0.9,0-1.3,0c-0.4,0-0.9,0-1.3,0C100.7,134.9,99.9,134.9,99,135z
				"/>
			<path d="M111.1,131.4c0,1.3,0.2,2.1,0.6,2.5c0.4,0.4,1.2,0.6,2.3,0.6c1.5,0,2.8-0.6,3.8-1.7s1.5-2.5,1.5-4.3
				c0-2.2-0.7-3.8-2.1-5.1c-1.4-1.2-3.4-1.8-5.9-1.8h-0.2L111.1,131.4L111.1,131.4z M106.6,135v-0.4c1-0.1,1.7-0.3,2-0.6
				c0.3-0.3,0.5-1,0.5-2v-7.7c0-0.9-0.2-1.5-0.5-1.9c-0.3-0.3-0.9-0.6-1.9-0.7v-0.4c1.1,0,2.3,0,3.5,0s1.9,0,2.1,0
				c2.9,0,5.1,0.6,6.7,1.9c1.6,1.2,2.4,2.9,2.4,5.1c0,2.1-0.8,3.8-2.3,5s-3.7,1.8-6.4,1.8c-0.5,0-1.5,0-2.9,0
				C108.6,135,107.4,135,106.6,135z"/>
			<path d="M126.6,128.4h4l-2-5.4L126.6,128.4z M121.9,135v-0.4c0.4-0.1,0.8-0.2,1-0.3c0.3-0.1,0.5-0.3,0.7-0.5
				c0.3-0.3,0.9-1.8,1.9-4.6c0.2-0.6,0.4-1.1,0.5-1.4l2.2-5.9l-0.1-0.4c0.3-0.1,0.5-0.2,0.7-0.4s0.4-0.4,0.7-0.7l4.3,11.7
				c0.4,1,0.7,1.6,1.1,1.9c0.4,0.3,0.9,0.5,1.5,0.5v0.4c-0.8,0-1.4,0-1.8,0c-0.4,0-0.8,0-1.2,0c-0.3,0-0.7,0-1.1,0c-0.4,0-1,0-1.8,0
				v-0.4c0.5,0,0.9-0.2,1.1-0.4c0.3-0.2,0.4-0.5,0.4-0.8c0-0.2,0-0.3-0.1-0.6c0-0.2-0.1-0.5-0.2-0.8l-1-2.9h-4.4l-0.4,1.1
				c-0.3,0.8-0.5,1.4-0.6,1.9s-0.2,0.9-0.2,1.1c0,0.4,0.2,0.7,0.5,0.9c0.4,0.2,0.9,0.3,1.7,0.3v0.4c0,0,0,0-0.1,0
				c-1.3,0-2.2,0-2.8,0c-0.3,0-0.7,0-1.1,0C123.1,134.9,122.6,134.9,121.9,135z"/>
			<path d="M140.9,131.4c0,1.3,0.2,2.1,0.6,2.5c0.4,0.4,1.2,0.6,2.3,0.6c1.5,0,2.8-0.6,3.8-1.7s1.5-2.5,1.5-4.3
				c0-2.2-0.7-3.8-2.1-5.1c-1.4-1.2-3.4-1.8-5.9-1.8h-0.2L140.9,131.4L140.9,131.4z M136.4,135v-0.4c1-0.1,1.7-0.3,2-0.6
				c0.3-0.3,0.5-1,0.5-2v-7.7c0-0.9-0.2-1.5-0.5-1.9c-0.3-0.3-0.9-0.6-1.9-0.7v-0.4c1.1,0,2.3,0,3.5,0s1.9,0,2.1,0
				c2.9,0,5.1,0.6,6.7,1.9c1.6,1.2,2.4,2.9,2.4,5.1c0,2.1-0.8,3.8-2.3,5s-3.7,1.8-6.4,1.8c-0.5,0-1.5,0-2.9,0
				C138.4,135,137.3,135,136.4,135z"/>
			<path d="M161.4,131.4c0,1.3,0.2,2.1,0.6,2.5c0.4,0.4,1.2,0.6,2.3,0.6c1.5,0,2.8-0.6,3.8-1.7s1.5-2.5,1.5-4.3
				c0-2.2-0.7-3.8-2.1-5.1c-1.4-1.2-3.4-1.8-5.9-1.8h-0.2L161.4,131.4L161.4,131.4z M156.9,135v-0.4c1-0.1,1.7-0.3,2-0.6
				c0.3-0.3,0.5-1,0.5-2v-7.7c0-0.9-0.2-1.5-0.5-1.9c-0.3-0.3-0.9-0.6-1.9-0.7v-0.4c1.1,0,2.3,0,3.5,0s1.9,0,2.1,0
				c2.9,0,5.1,0.6,6.7,1.9c1.6,1.2,2.4,2.9,2.4,5.1c0,2.1-0.8,3.8-2.3,5s-3.7,1.8-6.4,1.8c-0.5,0-1.5,0-2.9,0
				C158.9,135,157.8,135,156.9,135z"/>
			<path d="M171.9,135v-0.4c1-0.1,1.7-0.3,2.1-0.7c0.3-0.3,0.5-1,0.5-2v-7.5c0-1.1-0.2-1.8-0.5-2.2s-1-0.5-1.9-0.6v-0.4
				c0.6,0,1.3,0,2,0s1.8,0,3.1,0c1.6,0,2.8,0,3.5,0s1.4,0,2,0c-0.1,0.4-0.1,0.9-0.2,1.4c0,0.5-0.1,1.1-0.1,1.7h-0.1
				c-0.1-1-0.3-1.6-0.8-2s-1.3-0.6-2.5-0.6h-2.6v5.6h2c1.1,0,1.8-0.1,2.2-0.4c0.4-0.3,0.7-0.8,0.8-1.5h0.3c0,0.4,0,0.9,0,1.7
				c0,0.8,0,1.4,0,1.8v1.1h-0.4c-0.1-0.7-0.3-1.2-0.7-1.4c-0.4-0.3-1.2-0.4-2.2-0.4h-2v3.5c0,1.1,0.2,1.8,0.7,2.1
				c0.4,0.3,1.3,0.5,2.5,0.5s2.1-0.3,2.7-0.9c0.7-0.6,1.1-1.4,1.3-2.6h0.3c0,0.7-0.1,1.4-0.2,2.1c-0.1,0.7-0.3,1.3-0.5,1.9
				c-0.9,0-1.9,0-3-0.1c-1.1,0-2.3,0-3.6,0c-1.2,0-2.1,0-2.8,0C173.1,134.9,172.5,134.9,171.9,135z"/>
		</g>
	</g>
</g>
</svg>
