<?xml version="1.0" encoding="utf-8"?>
<!-- Generator: Adobe Illustrator 20.0.0, SVG Export Plug-In . SVG Version: 6.00 Build 0)  -->
<svg version="1.1" id="Layer_1" xmlns="http://www.w3.org/2000/svg" xmlns:xlink="http://www.w3.org/1999/xlink" x="0px" y="0px"
	 width="241.3px" height="22.3px" viewBox="0 0 241.3 22.3" style="enable-background:new 0 0 241.3 22.3;" xml:space="preserve">
<style type="text/css">
	.st0{fill:#FFFFFF;}
	.st1{opacity:0.3;}
</style>
<g>
	<g>
		<path class="st0" d="M22.4,21.5c-0.7,0-0.8-0.2-0.9-3.6c-1,1.3-1.5,1.8-2.3,2.4c-1.4,1-3.7,1.7-5.6,1.7c-2.2,0-4.7-1-6-2.3
			c-1.5-1.4-2.3-3.8-2.3-6.5c0-0.3,0-0.7,0.1-1.1v-0.9V4.8c0-3-3.3-2.7-3.4-3.1c-0.1-0.5,4-0.8,6.6-1.2c0.6-0.1,0.7,0.2,0.7,1.7
			l-0.1,9.6V13c0,4.2,2.5,7,6.2,7c3.5,0,6.4-2.5,6.2-5.5v-0.2V5c0-3.6-3.5-2.9-3.5-3.3c0-0.6,5.1-1.1,6.7-1.4c0.3-0.1,0.7,0,0.7,1.3
			v3c2.1-2.5,4.6-3.7,7.5-3.7c3.1,0,5,1.2,6.8,4.1c2.2-2.8,4.7-4.1,7.9-4.1c4.9,0,7.9,3.4,7.9,9v6.2c0,1.2,0.2,2.5,0.6,2.9
			c0.5,0.6,1.9,1.3,3,1.4c0.5,0.1,0.7,0.2,0.7,0.6c0,0.3-0.2,0.5-0.6,0.5c-0.2,0-9,0-9.2,0c-0.4,0-0.7-0.2-0.7-0.5
			c0-0.2,0.2-0.4,0.5-0.5c1.9-0.7,2.1-0.9,2.1-3.9v-5.7c0-2.6-0.4-4.1-1.5-5.5C49,3.8,47.5,3,45.7,3c-2.7,0-5.5,1.9-5.5,3.7
			c0,0.2,0,0.4,0.1,0.7c0.2,0.9,0.2,1,0.2,1.9v7.2c0,2.8,0.7,3.7,3.4,3.9c0.6,0.1,0.9,0.3,0.9,0.6c0,0.3-0.3,0.5-0.7,0.5
			c0,0-9,0-9.2,0c-0.3,0-0.7-0.1-0.7-0.5c0-0.2,0.2-0.3,0.5-0.5c1.9-0.7,2-0.8,2-3.7V9.4c0-3.9-2.2-6.3-5.7-6.3
			c-3.2,0-5.5,1.8-5.5,4.6v9.1c0,0.7,0,1.4,0,2c0.3,1.6,3.6,1.4,3.6,1.7c0,0.3-0.1,0.4-0.3,0.4C28.8,20.8,22.4,21.5,22.4,21.5z"/>
	</g>
	<g>
		<g>
			<path class="st0" d="M200.4,3.2l4.5,8.6c1.2,0.1,2.4,0.1,3.6,0.2l-6.2-11.2h-3.7L193,11.2c1,0,2.1,0.1,3.1,0.1L200.4,3.2z"/>
		</g>
		<g>
			<path class="st0" d="M223.8,0.9h-3.4v12c1.2,0.1,2.3,0.2,3.4,0.3V0.9z"/>
		</g>
		<g>
			<path class="st0" d="M209.9,21.4h3.8l-5.2-9.4c-1.2-0.1-2.4-0.2-3.6-0.2L209.9,21.4z"/>
		</g>
		<g>
			<path class="st0" d="M190.8,21.4l5.3-10.1c-1,0-2.1-0.1-3.1-0.1l-5.6,10.2H190.8z"/>
		</g>
		<g>
			<path class="st0" d="M239.4,21.4v-2.9h-15.6v-5.4c-1.1-0.1-2.3-0.2-3.4-0.3v8.6H239.4z"/>
		</g>
		<g>
			<polygon class="st0" points="81.2,0.9 74.9,13.2 74.9,13.2 			"/>
		</g>
		<g>
			<path class="st0" d="M63.4,0.9h-3.7l7.1,13c1.1-0.1,2.2-0.2,3.3-0.3L63.4,0.9z"/>
		</g>
		<g>
			<path class="st0" d="M94.6,0.9h-3.4V12c1.1-0.1,2.3-0.1,3.4-0.2V0.9z"/>
		</g>
		<g>
			<path class="st0" d="M143.7,3.7h9.4V0.9h-22.3v2.8h9.4v6.6c1.1,0,2.3,0,3.4,0V3.7z"/>
		</g>
		<g>
			<path class="st0" d="M180.7,0.9h-3.4v9.7c1.1,0,2.3,0.1,3.4,0.1V0.9z"/>
		</g>
		<g>
			<path class="st0" d="M162.3,0.9h-3.4v9.4c1.1,0,2.3,0,3.4,0V0.9z"/>
		</g>
		<g>
			<path class="st0" d="M114.8,10.8L114.8,10.8c0.8,0.1,1.5,0,2.3,0H114.8z"/>
		</g>
		<g>
			<path class="st0" d="M108.7,3.6h11.8c0.8,0,1.4,0.2,1.7,0.5c0.3,0.3,0.5,0.9,0.5,1.7v3c0,0.8-0.2,1.4-0.5,1.7
				c-0.1,0.1-0.4,0.2-0.6,0.3c1.5,0,3-0.1,4.4-0.1c0.1-0.3,0.1-0.7,0.1-1.1V4.9c0-1.4-0.3-2.4-1-3c-0.7-0.6-1.8-0.9-3.3-0.9h-16.5
				v10.4c1.1-0.1,2.3-0.1,3.4-0.2V3.6z"/>
		</g>
		<g>
			<polygon class="st0" points="78.3,12.9 84.6,0.9 78.3,12.9 			"/>
		</g>
		<g>
			<path class="st0" d="M78.3,12.9l6.3-12h-3.4l-6.2,12.3C76,13.1,77.1,13,78.3,12.9z"/>
		</g>
		<g class="st1">
			<path class="st0" d="M120.5,10.8c0.5,0,0.8-0.1,1.1-0.1c-1.5,0-3.1,0.1-4.6,0.1H120.5z"/>
		</g>
		<g>
			<path class="st0" d="M70.9,21.4l1.6-3.4l2.4-4.8l0,0L72.5,18l-2.3-4.4c-1.1,0.1-2.2,0.2-3.3,0.3L70.9,21.4L70.9,21.4z"/>
		</g>
		<g>
			<path class="st0" d="M94.6,21.4v-9.6c-1.1,0.1-2.3,0.1-3.4,0.2v9.4H94.6z"/>
		</g>
		<g>
			<path class="st0" d="M143.7,21.4V10.3c-1.1,0-2.3,0-3.4,0v11.2H143.7z"/>
		</g>
		<g>
			<path class="st0" d="M159.9,20.4c0.7,0.7,1.9,1,3.8,1h12.2c1.9,0,3.1-0.3,3.8-1c0.7-0.7,1-2,1-3.8v-5.9c-1.1,0-2.3-0.1-3.4-0.1v8
				h-15v-8.3c-1.1,0-2.3,0-3.4,0v6.3C158.9,18.5,159.2,19.8,159.9,20.4z"/>
		</g>
		<g>
			<path class="st0" d="M108.7,21.4V11.1c-1.1,0-2.3,0.1-3.4,0.2v10.2H108.7z"/>
		</g>
		<g>
			<path class="st0" d="M120.5,10.8h-3.4c-0.8,0-1.5,0.1-2.3,0.1v2.6l8.4,8h5.1l-9.4-8h3c1.5,0,2.6-0.3,3.3-0.9c0.5-0.5,0.8-1.1,1-2
				c-1.5,0-3,0.1-4.4,0.1C121.4,10.7,121,10.8,120.5,10.8z"/>
		</g>
		<g>
			<path class="st0" d="M78.3,12.9c-1.1,0.1-2.2,0.2-3.3,0.3L72.5,18l-1.6,3.4h2.9L78.3,12.9z"/>
		</g>
		<g>
			<path class="st0" d="M186.4,14l-0.9,2.1c11.7-0.2,24.7-2.1,27.8-7.1c-5.6,2.8-14.4,4.6-23.3,4.9c-0.3,0-2.5,0.1-2.5,0.1L186.4,14
				z"/>
		</g>
	</g>
</g>
</svg>
