<?xml version="1.0" encoding="utf-8"?>
<!-- Generator: Adobe Illustrator 19.1.0, SVG Export Plug-In . SVG Version: 6.00 Build 0)  -->
<svg version="1.1" xmlns="http://www.w3.org/2000/svg" xmlns:xlink="http://www.w3.org/1999/xlink" x="0px" y="0px"
	 viewBox="0 0 2834.6 2834.6" style="enable-background:new 0 0 2834.6 2834.6;" xml:space="preserve">
<style type="text/css">
	.st0{fill:#FFFFFF;}
</style>
<g id="Layer_1">
</g>
<g id="Layer_3">
	<g>
		<g>
			<g>
				<polygon class="st0" points="1102.2,-4241.1 1184.5,-4241.1 1184.5,-3794.5 1262.6,-3794.5 1262.6,-4241.1 1346.8,-4241.1 
					1346.8,-4314.3 1102.2,-4314.3 				"/>
				<path class="st0" d="M1762-4186.4c-25.7,0-49.9,13.9-72.3,41.9v-169.8h-70.3v519.7h70.3v-37.6c23.3,29,47.5,42.8,72.3,42.8
					c28,0,46.8-14.6,56.1-43.5c4.6-16.4,7.1-42.3,7.1-78.1v-154c0-36.7-2.5-62.3-7.1-77.9C1808.7-4171.9,1789.9-4186.4,1762-4186.4z
					 M1755-3905.2c0,35-10.2,52.1-30.6,52.1c-11.5,0-23.1-5.4-34.8-17.1v-236c11.7-11.6,23.3-17.1,34.8-17.1
					c20.4,0,30.6,17.9,30.6,52.8V-3905.2z"/>
				<path class="st0" d="M1488.4-3885.9c-15.5,22-30.1,32.8-44.3,32.8c-9.3,0-14.7-5.4-16.4-16.3c-0.7-2.3-0.7-10.8-0.7-27.2v-285.2
					h-70v306.2c0,27.4,2.3,45.9,6,57.6c7.3,19.7,22.8,28.8,45.3,28.8c26,0,52.4-15.5,80.2-47.5v42.3h70.3v-387.3h-70.3V-3885.9z"/>
				<path class="st0" d="M1548.6-4539.5c22.9,0,34-18.1,34-54.3v-164.6c0-36.3-11.1-54.3-34-54.3c-22.8,0-33.7,18.2-33.7,54.3v164.6
					C1514.9-4557.6,1525.8-4539.5,1548.6-4539.5z"/>
				<path class="st0" d="M1595.9-5358.4c-574.5,0-1040.4,465.9-1040.4,1040.5c0,574.6,465.9,1040.5,1040.4,1040.5
					c574.7,0,1040.5-465.9,1040.5-1040.5C2636.5-4892.5,2170.7-5358.4,1595.9-5358.4z M1711.7-4871.7h70.8v288.1
					c0,16.6,0,25.2,0.7,27.6c1.6,11,7.1,16.6,16.8,16.6c14.2,0,29-11,44.7-33.2v-299.1h70.9v391.2h-70.9v-42.6
					c-28.2,32.4-55,48-80.9,48c-22.9,0-38.6-9.3-45.7-29c-3.9-11.9-6.3-30.6-6.3-58.2V-4871.7L1711.7-4871.7z M1444-4744.1
					c0-41.8,7.1-72.4,22.1-92.1c19.6-26.8,47.3-40.2,82.5-40.2c35.6,0,63.3,13.4,82.7,40.2c15,19.7,22,50.3,22,92.1v137
					c0,41.6-7,72.4-22,92c-19.5,26.7-47.2,40.1-82.7,40.1c-35.2,0-62.9-13.3-82.5-40.1c-15-19.6-22.1-50.4-22.1-92V-4744.1z
					 M1254.3-5005.5l55.8,206.2l53.7-206.2h79.4l-94.6,312.4v212.7h-78.6v-212.7c-7.1-37.7-22.9-92.9-48-166.2
					c-16.6-48.7-33.8-97.5-50.4-146.2H1254.3z M2156.1-3760.4c-14.1,61.7-64.7,107.2-125.4,114.1c-144.1,16-289.7,16.1-434.8,16
					c-145.1,0.1-290.9,0-434.6-16c-60.9-6.9-111.3-52.4-125.6-114.1c-20.1-87.9-20.1-183.9-20.1-274.4c0-90.6,0.3-186.6,20.6-274.4
					c14.1-61.8,64.4-107.4,125.4-114.2c144-15.9,289.6-16,434.7-15.9c145.1-0.1,290.7,0,434.7,15.9c60.9,6.9,111.3,52.5,125.6,114.2
					c20.2,87.8,20,183.9,20,274.4C2176.4-3944.3,2176.4-3848.3,2156.1-3760.4z"/>
				<path class="st0" d="M1985.5-4186.4c-36,0-63.9,13.1-84,39.6c-15,19.6-21.6,49.9-21.6,91.3v135.6c0,41.1,7.4,71.6,22.5,90.9
					c20.1,26.5,48,39.7,84.9,39.7c36.6,0,65.4-13.8,84.9-41.9c8.3-12.5,13.8-26.5,16.2-42.1c0.7-7,1.6-22.7,1.6-45.3v-10.1h-71.7
					c0,28-0.9,43.6-1.4,47.5c-4.2,18.8-14.2,28-31.4,28c-24.2,0-36-17.8-36-53.5v-68.8H2090v-80.1c0-41.3-7-71.6-21.8-91.3
					C2048.5-4173.3,2020.6-4186.4,1985.5-4186.4z M2019.7-4033.8h-70v-35.9c0-35.9,11.7-53.8,35.2-53.8c23.1,0,34.9,17.9,34.9,53.8
					V-4033.8z"/>
			</g>
		</g>
		<g>
			<g>
				<path class="st0" d="M-1491.3-5389.9c-605.9,0-1098.8,492.9-1098.8,1098.9c0,606,492.9,1098.9,1098.8,1098.9
					c605.9,0,1098.8-492.9,1098.8-1098.9C-392.5-4897-885.2-5389.9-1491.3-5389.9z M-1001.1-4542.5c0.5,10.9,0.7,22,0.7,32.8
					c0,334.3-254.3,719.6-719.6,719.6c-142.9,0-275.8-41.8-387.7-113.5c19.8,2.3,39.9,3.5,60.3,3.5c118.5,0,227.5-40.4,314.2-108.2
					c-110.7-2.2-204.1-75.1-236.3-175.7c15.4,2.9,31.1,4.6,47.6,4.6c22.9,0,45.5-3.1,66.6-8.8c-115.7-23.2-202.9-125.4-202.9-248.1
					c0-0.9,0-2.1,0-3.2c34.1,18.9,73.1,30.3,114.5,31.6c-67.8-45.3-112.3-122.8-112.3-210.6c0-46.2,12.3-89.8,34-127.2
					c124.7,153.1,311.2,253.9,521.3,264.3c-4.3-18.5-6.5-37.7-6.5-57.6c0-139.6,113.1-252.9,252.8-252.9
					c72.8,0,138.5,30.6,184.5,79.8c57.9-11.3,111.8-32.4,160.7-61.5c-18.9,59.1-59,108.8-111.3,140.1
					c51.2-6.2,100.1-19.8,145.3-39.9C-908.8-4622.6-951.6-4578.1-1001.1-4542.5z"/>
			</g>
		</g>
		<g>
			<path class="st0" d="M4683.3-5389.9c-597.9,0-1082.5,484.6-1082.5,1082.4c0,597.9,484.6,1082.5,1082.5,1082.5
				c597.8,0,1082.4-484.6,1082.4-1082.5C5765.7-4905.3,5281.2-5389.9,4683.3-5389.9z M4277.4-3766.3c-74.8,0-135.4-60.6-135.4-135.3
				c0-74.8,60.6-135.4,135.4-135.4c74.8,0,135.3,60.6,135.3,135.4C4412.7-3826.8,4352.2-3766.3,4277.4-3766.3z M4649.5-3766.3
				c0-279.8-227.6-507.4-507.5-507.4v-203c391.8,0,710.4,318.6,710.4,710.4H4649.5z M5055.4-3766.3c0-244-95-473.3-267.4-645.8
				c-172.5-172.4-401.9-267.5-645.9-267.5v-202.9c298.2,0,578.5,116.1,789.4,326.9c210.8,210.8,327,491.1,327,789.3H5055.4z"/>
		</g>
		<path class="st0" d="M7770.6-5389.9c-606.2,0-1097.7,491.4-1097.7,1097.7c0,606.3,491.5,1097.7,1097.7,1097.7
			c606.3,0,1097.8-491.3,1097.8-1097.7C8868.4-4898.5,8376.9-5389.9,7770.6-5389.9z M8046.3-4292.2c0,275.5-224,499.5-499.5,499.5
			c-275.5,0-499.5-224.1-499.5-499.5c0-275.5,224-499.5,499.5-499.5c111.2,0,216.4,35.8,304.4,103.5l-116,150.8
			c-54.4-41.8-119.7-64-188.4-64c-170.4,0-309.3,138.7-309.3,309.3c0,170.5,138.8,309.3,309.3,309.3c137.4,0,254.1-90.1,294.3-214.1
			h-294.3v-190.3h499.5V-4292.2z M8572.3-4230.1h-143v143.2h-124.5v-143.2h-143v-124.4h143v-143.2h124.5v143.2h143V-4230.1z"/>
		<g>
			<g>
				<path class="st0" d="M1498.7,314.8C902.3,314.8,417,800.1,417,1396.6c0,596.4,485.3,1081.7,1081.7,1081.7
					c596.4,0,1081.7-485.2,1081.7-1081.7C2580.4,800.1,2095.2,314.8,1498.7,314.8z M1767.7,1434.6h-176.1c0,281.2,0,627.4,0,627.4
					h-260.8c0,0,0-342.8,0-627.4h-124V1213h124v-143.4c0-102.7,48.9-263.2,263.2-263.2l193.3,0.7v215.3c0,0-117.5,0-140.3,0
					c-22.8,0-55.4,11.3-55.4,60.3V1213h198.7L1767.7,1434.6z"/>
			</g>
		</g>
	</g>
</g>
</svg>
