<?xml version="1.0" encoding="utf-8"?>
<!-- Generator: Adobe Illustrator 19.1.0, SVG Export Plug-In . SVG Version: 6.00 Build 0)  -->
<svg version="1.1" xmlns="http://www.w3.org/2000/svg" xmlns:xlink="http://www.w3.org/1999/xlink" x="0px" y="0px"
	 viewBox="0 0 1023.1 245.1" style="enable-background:new 0 0 1023.1 245.1;" xml:space="preserve">
<style type="text/css">
	.st0{fill:#FFFFFF;}
</style>
<g id="Layer_1">
</g>
<g id="Layer_3">
	<g>
		<g>
			<g>
				<polygon class="st0" points="478,129 483.3,129 483.3,157.7 488.3,157.7 488.3,129 493.8,129 493.8,124.3 478,124.3 				"/>
				<path class="st0" d="M520.5,132.5c-1.7,0-3.2,0.9-4.7,2.7v-10.9h-4.5v33.4h4.5v-2.4c1.5,1.9,3.1,2.8,4.7,2.8
					c1.8,0,3-0.9,3.6-2.8c0.3-1.1,0.5-2.7,0.5-5v-9.9c0-2.4-0.2-4-0.5-5C523.5,133.5,522.3,132.5,520.5,132.5z M520,150.6
					c0,2.2-0.7,3.4-2,3.4c-0.7,0-1.5-0.3-2.2-1.1v-15.2c0.8-0.7,1.5-1.1,2.2-1.1c1.3,0,2,1.2,2,3.4V150.6z"/>
				<path class="st0" d="M502.9,151.9c-1,1.4-1.9,2.1-2.8,2.1c-0.6,0-0.9-0.3-1.1-1.1c0-0.1,0-0.7,0-1.8v-18.3h-4.5v19.7
					c0,1.8,0.2,2.9,0.4,3.7c0.5,1.3,1.5,1.9,2.9,1.9c1.7,0,3.4-1,5.2-3.1v2.7h4.5v-24.9h-4.5V151.9z"/>
				<path class="st0" d="M506.7,109.8c1.5,0,2.2-1.2,2.2-3.5V95.7c0-2.3-0.7-3.5-2.2-3.5c-1.5,0-2.2,1.2-2.2,3.5v10.6
					C504.6,108.7,505.3,109.8,506.7,109.8z"/>
				<path class="st0" d="M509.8,57.1c-37,0-66.9,30-66.9,66.9c0,37,30,66.9,66.9,66.9c37,0,66.9-30,66.9-66.9
					C576.7,87.1,546.8,57.1,509.8,57.1z M517.2,88.4h4.6V107c0,1.1,0,1.6,0,1.8c0.1,0.7,0.5,1.1,1.1,1.1c0.9,0,1.9-0.7,2.9-2.1V88.4
					h4.6v25.2h-4.6v-2.7c-1.8,2.1-3.5,3.1-5.2,3.1c-1.5,0-2.5-0.6-2.9-1.9c-0.3-0.8-0.4-2-0.4-3.7V88.4L517.2,88.4z M500,96.7
					c0-2.7,0.5-4.7,1.4-5.9c1.3-1.7,3-2.6,5.3-2.6c2.3,0,4.1,0.9,5.3,2.6c1,1.3,1.4,3.2,1.4,5.9v8.8c0,2.7-0.5,4.7-1.4,5.9
					c-1.3,1.7-3,2.6-5.3,2.6c-2.3,0-4-0.9-5.3-2.6c-1-1.3-1.4-3.2-1.4-5.9V96.7z M487.8,79.8l3.6,13.3l3.5-13.3h5.1l-6.1,20.1v13.7
					h-5.1V99.9c-0.5-2.4-1.5-6-3.1-10.7c-1.1-3.1-2.2-6.3-3.2-9.4H487.8z M545.8,159.9c-0.9,4-4.2,6.9-8.1,7.3c-9.3,1-18.6,1-28,1
					c-9.3,0-18.7,0-28-1c-3.9-0.4-7.2-3.4-8.1-7.3c-1.3-5.7-1.3-11.8-1.3-17.7c0-5.8,0-12,1.3-17.7c0.9-4,4.1-6.9,8.1-7.3
					c9.3-1,18.6-1,28-1c9.3,0,18.7,0,28,1c3.9,0.4,7.2,3.4,8.1,7.3c1.3,5.7,1.3,11.8,1.3,17.7C547.1,148.1,547.1,154.3,545.8,159.9z
					"/>
				<path class="st0" d="M534.9,132.5c-2.3,0-4.1,0.8-5.4,2.5c-1,1.3-1.4,3.2-1.4,5.9v8.7c0,2.6,0.5,4.6,1.4,5.8
					c1.3,1.7,3.1,2.6,5.5,2.6c2.4,0,4.2-0.9,5.5-2.7c0.5-0.8,0.9-1.7,1-2.7c0-0.5,0.1-1.5,0.1-2.9v-0.6H537c0,1.8-0.1,2.8-0.1,3.1
					c-0.3,1.2-0.9,1.8-2,1.8c-1.6,0-2.3-1.1-2.3-3.4v-4.4h9v-5.2c0-2.7-0.5-4.6-1.4-5.9C538.9,133.4,537.1,132.5,534.9,132.5z
					 M537.1,142.4h-4.5V140c0-2.3,0.8-3.5,2.3-3.5c1.5,0,2.2,1.2,2.2,3.5V142.4z"/>
			</g>
		</g>
		<g>
			<g>
				<path class="st0" d="M311.2,55.1c-39,0-70.7,31.7-70.7,70.7c0,39,31.7,70.7,70.7,70.7c39,0,70.7-31.7,70.7-70.7
					C381.9,86.8,350.2,55.1,311.2,55.1z M342.7,109.6c0,0.7,0,1.4,0,2.1c0,21.5-16.4,46.3-46.3,46.3c-9.2,0-17.7-2.7-24.9-7.3
					c1.3,0.1,2.6,0.2,3.9,0.2c7.6,0,14.6-2.6,20.2-7c-7.1-0.1-13.1-4.8-15.2-11.3c1,0.2,2,0.3,3.1,0.3c1.5,0,2.9-0.2,4.3-0.6
					c-7.4-1.5-13.1-8.1-13.1-16c0-0.1,0-0.1,0-0.2c2.2,1.2,4.7,2,7.4,2c-4.4-2.9-7.2-7.9-7.2-13.5c0-3,0.8-5.8,2.2-8.2
					c8,9.9,20,16.3,33.5,17c-0.3-1.2-0.4-2.4-0.4-3.7c0-9,7.3-16.3,16.3-16.3c4.7,0,8.9,2,11.9,5.1c3.7-0.7,7.2-2.1,10.3-4
					c-1.2,3.8-3.8,7-7.2,9c3.3-0.4,6.4-1.3,9.4-2.6C348.7,104.5,345.9,107.3,342.7,109.6z"/>
			</g>
		</g>
		<g>
			<path class="st0" d="M708.4,55.1c-38.5,0-69.6,31.2-69.6,69.6c0,38.5,31.2,69.6,69.6,69.6c38.5,0,69.6-31.2,69.6-69.6
				C778.1,86.3,746.9,55.1,708.4,55.1z M682.3,159.6c-4.8,0-8.7-3.9-8.7-8.7c0-4.8,3.9-8.7,8.7-8.7s8.7,3.9,8.7,8.7
				C691,155.7,687.1,159.6,682.3,159.6z M706.2,159.6c0-18-14.6-32.6-32.6-32.6v-13.1c25.2,0,45.7,20.5,45.7,45.7H706.2z
				 M732.4,159.6c0-15.7-6.1-30.4-17.2-41.5c-11.1-11.1-25.9-17.2-41.6-17.2V87.7c19.2,0,37.2,7.5,50.8,21
				c13.6,13.6,21,31.6,21,50.8H732.4z"/>
		</g>
		<path class="st0" d="M907,55.1c-39,0-70.6,31.6-70.6,70.6c0,39,31.6,70.6,70.6,70.6c39,0,70.6-31.6,70.6-70.6
			C977.7,86.7,946,55.1,907,55.1z M924.8,125.7c0,17.7-14.4,32.1-32.1,32.1c-17.7,0-32.1-14.4-32.1-32.1c0-17.7,14.4-32.1,32.1-32.1
			c7.2,0,13.9,2.3,19.6,6.7l-7.5,9.7c-3.5-2.7-7.7-4.1-12.1-4.1c-11,0-19.9,8.9-19.9,19.9s8.9,19.9,19.9,19.9
			c8.8,0,16.3-5.8,18.9-13.8h-18.9v-12.2h32.1V125.7z M958.6,129.7h-9.2v9.2h-8v-9.2h-9.2v-8h9.2v-9.2h8v9.2h9.2V129.7z"/>
		<g>
			<g>
				<path class="st0" d="M112.6,57.1C74.2,57.1,43,88.3,43,126.7c0,38.4,31.2,69.6,69.6,69.6c38.4,0,69.6-31.2,69.6-69.6
					C182.1,88.3,150.9,57.1,112.6,57.1z M129.9,129.1h-11.3c0,18.1,0,40.4,0,40.4h-16.8c0,0,0-22.1,0-40.4h-8v-14.3h8v-9.2
					c0-6.6,3.1-16.9,16.9-16.9l12.4,0v13.9c0,0-7.6,0-9,0c-1.5,0-3.6,0.7-3.6,3.9v8.4h12.8L129.9,129.1z"/>
			</g>
		</g>
	</g>
</g>
</svg>
