<?xml version="1.0" encoding="utf-8"?>
<!-- Generator: Adobe Illustrator 19.1.0, SVG Export Plug-In . SVG Version: 6.00 Build 0)  -->
<svg version="1.1" id="Layer_1" xmlns="http://www.w3.org/2000/svg" xmlns:xlink="http://www.w3.org/1999/xlink" x="0px" y="0px"
	 viewBox="-461 322 100 125" style="enable-background:new -461 322 100 125;" xml:space="preserve">
<style type="text/css">
	.st0{fill:#2D3D4F;}
</style>
<path class="st0" d="M-446.8,387.9c-1.4,1.5-4.1,1.1-5.9-0.8l0,0c-1.8-1.9-2.2-4.6-0.7-6.1l20.8-21.2c1.4-1.5,4.1-1.1,5.9,0.8l0,0
	c1.8,1.9,2.2,4.6,0.7,6.1L-446.8,387.9z"/>
<path class="st0" d="M-416.7,330c-11.4,0-20.6,9.2-20.6,20.6c0,11.4,9.2,20.6,20.6,20.6s20.6-9.2,20.6-20.6
	C-396.1,339.2-405.3,330-416.7,330z M-416.7,363c-6.8,0-12.4-5.5-12.4-12.4c0-6.8,5.5-12.4,12.4-12.4c6.8,0,12.4,5.5,12.4,12.4
	C-404.3,357.4-409.9,363-416.7,363z"/>
<g>
	<rect x="-413" y="391.8" class="st0" width="29.8" height="3.3"/>
	<rect x="-413" y="382.4" class="st0" width="29.8" height="3.3"/>
	<rect x="-413" y="373" class="st0" width="29.8" height="3.3"/>
	<path class="st0" d="M-408.3,341l-0.3,0.3c2.6,2.3,4.3,5.6,4.3,9.3c0,6.8-5.5,12.4-12.4,12.4c-3.6,0-6.9-1.6-9.1-4l-1.7,1.8v51.6
		h58.6V341H-408.3z M-377.5,403.9h-41.7v-40.4h15.1v-14.1h26.5V403.9z"/>
</g>
<image style="overflow:visible;" width="1024" height="18467" xlink:href="../../../LANDING PAGE TERMINADA.jpg"  transform="matrix(1 0 0 1 -1688.0645 -8871.0029)">
</image>
</svg>
