<?xml version="1.0" encoding="utf-8"?>
<!-- Generator: Adobe Illustrator 19.1.0, SVG Export Plug-In . SVG Version: 6.00 Build 0)  -->
<svg version="1.1" id="Layer_1" xmlns="http://www.w3.org/2000/svg" xmlns:xlink="http://www.w3.org/1999/xlink" x="0px" y="0px"
	 viewBox="-479 345 64 80" style="enable-background:new -479 345 64 80;" xml:space="preserve">
<style type="text/css">
	.st0{fill:#2D3D4F;}
</style>
<g>
	<path class="st0" d="M-446.2,373.9c0.1-0.1,0.1-0.2,0.2-0.2c0.5-0.8,0.8-1.6,1-2.5l1.8-0.2v-2.6l-1.8-0.2c-0.2-1-0.6-1.9-1.1-2.7
		l1.1-1.5l-0.9-0.9l-0.9-0.9l-0.6,0.5l-0.8,0.6c-0.8-0.5-1.7-0.9-2.7-1.1l-0.2-1.8h-2.6l-0.2,1.8c-0.2,0-0.3,0.1-0.5,0.1h-0.1
		c-0.1,0-0.3,0.1-0.4,0.1c0,0,0,0-0.1,0c-0.6,0.2-1.2,0.5-1.7,0.9l-1.5-1.1l-1.8,1.8l1.1,1.5c-0.2,0.3-0.4,0.6-0.5,0.9l0,0
		c-0.1,0.1-0.1,0.3-0.2,0.4v0.1c0,0.1-0.1,0.2-0.1,0.3v0.1c0,0.1-0.1,0.2-0.1,0.3v0.1c0,0.1-0.1,0.2-0.1,0.3c0,0,0,0,0,0.1l-1.8,0.2
		v2.6l1.8,0.2c0,0.2,0.1,0.3,0.1,0.5v0.1c0,0.1,0.1,0.3,0.1,0.4l0,0c0.1,0.3,0.2,0.6,0.4,0.9l0,0c0.1,0.3,0.3,0.6,0.5,0.8l-1.1,1.5
		l1.8,1.8l1.5-1.1c0.4,0.3,0.9,0.5,1.4,0.7h0.1c0.1,0,0.2,0.1,0.3,0.1h0.1c0.1,0,0.2,0.1,0.3,0.1h0.1c0.1,0,0.3,0.1,0.4,0.1l0,0
		l0.2,1.8h2.6l0.2-1.8c0.1,0,0.2-0.1,0.4-0.1c0.9-0.2,1.7-0.6,2.4-1.1l1.5,1.1l0.6-0.6l1.2-1.2l-0.2-0.3L-446.2,373.9z
		 M-452.7,374.8c-0.2,0-0.3,0-0.5,0c-0.1,0-0.2,0-0.3,0c-0.1,0-0.1,0-0.2,0s-0.2,0-0.4-0.1c0,0,0,0-0.1,0s-0.3-0.1-0.4-0.1
		c-1.5-0.5-2.7-1.7-3.2-3.3c0-0.1-0.1-0.2-0.1-0.3c0-0.1,0-0.1,0-0.2s0-0.2-0.1-0.2c0-0.1,0-0.2,0-0.3c0-0.1,0-0.1,0-0.2
		c0-0.2,0-0.3,0-0.5l0,0c0-0.2,0-0.3,0-0.5c0-0.1,0-0.2,0-0.3c0-0.1,0-0.1,0-0.2s0-0.2,0.1-0.4c0,0,0,0,0-0.1s0.1-0.3,0.1-0.4l0,0
		c0.5-1.5,1.7-2.7,3.3-3.2c0.1,0,0.2-0.1,0.3-0.1c0.1,0,0.1,0,0.2,0s0.2,0,0.2-0.1c0.1,0,0.2,0,0.3,0c0.1,0,0.1,0,0.2,0
		c0.2,0,0.3,0,0.5,0c1.4,0,2.7,0.6,3.6,1.5l0,0l0,0c0.9,0.9,1.5,2.2,1.5,3.6C-447.5,372.5-449.8,374.8-452.7,374.8z"/>
	<path class="st0" d="M-452.7,365.4c-2.3,0-4.2,1.9-4.2,4.2c0,2.3,1.9,4.2,4.2,4.2c2.3,0,4.2-1.9,4.2-4.2S-450.3,365.4-452.7,365.4z
		 M-452.7,371.6c-1.1,0-2-0.9-2-2s0.9-2,2-2s2,0.9,2,2S-451.6,371.6-452.7,371.6z"/>
	<path class="st0" d="M-432.9,377.9c0-0.1,0-0.1,0.1-0.2c0.2-0.6,0.2-1.3,0.1-1.9l1.2-0.5l-0.6-1.8l-1.3,0.2
		c-0.3-0.6-0.8-1.2-1.4-1.6l0.5-1.2l-0.8-0.4l-0.8-0.4l-0.3,0.5l-0.4,0.6c-0.7-0.2-1.4-0.3-2.1-0.2l-0.5-1.2l-1.8,0.5l0.2,1.3
		c-0.1,0.1-0.2,0.1-0.3,0.2c0,0,0,0-0.1,0c-0.1,0.1-0.2,0.1-0.2,0.2l0,0c-0.4,0.3-0.7,0.6-1,1l-1.2-0.5l-0.9,1.7l1.1,0.8
		c-0.1,0.2-0.1,0.5-0.2,0.8l0,0c0,0.1,0,0.2,0,0.3c0,0,0,0,0,0.1s0,0.2,0,0.2v0.1c0,0.1,0,0.1,0,0.2v0.1c0,0.1,0,0.2,0,0.3
		c0,0,0,0,0,0.1l-1.2,0.5l0.5,1.8l1.3-0.2c0.1,0.1,0.1,0.2,0.2,0.3c0,0,0,0,0,0.1c0.1,0.1,0.1,0.2,0.2,0.2l0,0
		c0.1,0.2,0.3,0.4,0.4,0.5l0,0c0.2,0.2,0.3,0.3,0.5,0.5l-0.5,1.2l1.6,0.9l0.8-1.1c0.4,0.1,0.7,0.2,1.1,0.2c0,0,0,0,0.1,0
		s0.2,0,0.3,0h0.1c0.1,0,0.2,0,0.2,0h0.1c0.1,0,0.2,0,0.3,0l0,0l0.5,1.2l1.8-0.5l-0.2-1.3c0.1,0,0.2-0.1,0.2-0.1
		c0.5-0.3,1-0.7,1.4-1.2l1.2,0.5l0.3-0.5l0.6-1.1l-0.2-0.2L-432.9,377.9z M-437.1,379.8c-0.1,0-0.2,0.1-0.3,0.1c-0.1,0-0.1,0-0.2,0
		h-0.1c-0.1,0-0.2,0-0.3,0l0,0c-0.1,0-0.2,0-0.3,0c-1.1,0-2.2-0.6-2.9-1.6c0-0.1-0.1-0.1-0.1-0.2c0,0,0-0.1-0.1-0.1
		c0-0.1-0.1-0.1-0.1-0.2s-0.1-0.1-0.1-0.2c0,0,0-0.1-0.1-0.1c0-0.1-0.1-0.2-0.1-0.3l0,0c0-0.1-0.1-0.2-0.1-0.3c0-0.1,0-0.1,0-0.2
		v-0.1c0-0.1,0-0.2,0-0.3l0,0c0-0.1,0-0.2,0-0.3c0-1.1,0.6-2.2,1.6-2.9c0.1,0,0.1-0.1,0.2-0.1c0,0,0.1,0,0.1-0.1
		c0.1,0,0.1-0.1,0.2-0.1s0.1-0.1,0.2-0.1c0,0,0.1,0,0.1-0.1c0.1,0,0.2-0.1,0.3-0.1c1-0.3,2-0.2,2.8,0.2l0,0l0,0
		c0.8,0.4,1.5,1.2,1.8,2.2C-434,377.2-435.1,379.2-437.1,379.8z"/>
	<path class="st0" d="M-439.1,373.4c-1.6,0.5-2.5,2.2-2,3.7c0.5,1.6,2.2,2.5,3.7,2c1.6-0.5,2.5-2.2,2-3.7
		C-435.8,373.8-437.5,373-439.1,373.4z M-437.8,377.6c-0.7,0.2-1.5-0.2-1.7-0.9c-0.2-0.7,0.2-1.5,0.9-1.7c0.7-0.2,1.5,0.2,1.7,0.9
		C-436.6,376.6-437.1,377.4-437.8,377.6z"/>
	<path class="st0" d="M-427.5,385.1L-427.5,385.1c1.6-3.2,2.5-6.9,2.5-10.9c0-12.8-9.7-23.2-21.7-23.2c-3.9,0-7.4,1.2-10.7,3
		c-6.7,3.7-11.2,9.9-10.9,18.1c-0.1,0.7-0.1,1.4-0.1,2c0,2.1,0.3,4.2,0.8,6.1c-0.1,0.6-0.3,1.3-0.6,2c-1.2,2.8-5.9,9,0.4,8.9
		c0.2,1.4-0.8,2.8,0.9,3.3c-1,1.5-0.5,1.6-0.2,2.7c0,0,1,0.8,1.1,1.1c0.2,0.5-0.1,1.5,0,2c0.4,3.4,1.6,3.9,5.2,3.8
		c2.3-0.1,4.3-1.4,6.6-1.4c0.8,0,1.4,0.2,2,0.5c4.5,3.2-3.9,11.7-3.9,11.7h29.6C-436.2,406.8-427.5,385.1-427.5,385.1z
		 M-447.1,391.2c-10,0-18.2-8.1-18.2-18.2c0-10,8.1-18.2,18.2-18.2c10,0,18.2,8.1,18.2,18.2S-437,391.2-447.1,391.2z"/>
</g>
</svg>
