<svg xmlns="http://www.w3.org/2000/svg" xmlns:xlink="http://www.w3.org/1999/xlink" xmlns:sketch="http://www.bohemiancoding.com/sketch/ns" viewBox="0 0 100 60" version="1.1" x="0px" y="0px"><title>smart_phone_iphone_2</title><description>Created with Sketch (http://www.bohemiancoding.com/sketch)</description><g stroke="none" stroke-width="1" fill="none" fill-rule="evenodd" sketch:type="MSPage"><path d="M35.1428571,-26 C35.1428571,-26 26,-26 26,-16.9090909 L26,64.9090909 C26,74 35.1428571,74 35.1428571,74 L64.8571429,74 C64.8571429,74 74,74 74,64.9090909 L74,-16.9090909 C74,-26 64.8571429,-26 64.8571429,-26 L35.1428571,-26 Z M31,-15 L31,57 L69,57 L69,-15 L31,-15 Z M50,69.4545455 C51.882789,69.4545455 53.4090909,67.9282436 53.4090909,66.0454545 C53.4090909,64.1626655 51.882789,62.6363636 50,62.6363636 C48.117211,62.6363636 46.5909091,64.1626655 46.5909091,66.0454545 C46.5909091,67.9282436 48.117211,69.4545455 50,69.4545455 Z M40.9918031,-22 C40.4440454,-22 40,-21.5573397 40,-21.0010434 L40,-19.9989566 C40,-19.4472481 40.4553056,-19 40.9918031,-19 L59.0081969,-19 C59.5559546,-19 60,-19.4426603 60,-19.9989566 L60,-21.0010434 C60,-21.5527519 59.5446944,-22 59.0081969,-22 L40.9918031,-22 Z M40.9918031,-22" fill="#000000" sketch:type="MSShapeGroup" transform="translate(50.000000, 24.000000) rotate(-90.000000) translate(-50.000000, -24.000000) "/></g><text x="0" y="63" fill="#000000" font-size="5px" font-weight="bold" font-family="'Helvetica Neue', Helvetica, Arial-Unicode, Arial, Sans-serif">Created by Pham Thi Dieu Linh</text><text x="0" y="68" fill="#000000" font-size="5px" font-weight="bold" font-family="'Helvetica Neue', Helvetica, Arial-Unicode, Arial, Sans-serif">from the Noun Project</text></svg>