<?xml version="1.0" encoding="utf-8"?>
<!-- Generator: Adobe Illustrator 19.1.0, SVG Export Plug-In . SVG Version: 6.00 Build 0)  -->
<svg version="1.1" xmlns="http://www.w3.org/2000/svg" xmlns:xlink="http://www.w3.org/1999/xlink" x="0px" y="0px"
	 viewBox="0 0 2834.6 2834.6" style="enable-background:new 0 0 2834.6 2834.6;" xml:space="preserve">
<style type="text/css">
	.st0{fill:#FFFFFF;}
</style>
<g id="Layer_1">
</g>
<g id="Layer_3">
	<g>
		<g>
			<polygon class="st0" points="-1238.8,-2368.3 -1156.4,-2368.3 -1156.4,-1921.8 -1078.4,-1921.8 -1078.4,-2368.3 -994.2,-2368.3 
				-994.2,-2441.5 -1238.8,-2441.5 			"/>
			<path class="st0" d="M-579-2313.7c-25.7,0-49.9,13.9-72.3,41.9v-169.8h-70.3v519.7h70.3v-37.6c23.3,29,47.5,42.8,72.3,42.8
				c28,0,46.8-14.6,56.1-43.5c4.6-16.4,7.1-42.3,7.1-78.1v-154c0-36.7-2.5-62.3-7.1-77.9C-532.2-2299.1-551-2313.7-579-2313.7z
				 M-586-2032.5c0,35-10.2,52.1-30.6,52.1c-11.5,0-23.1-5.4-34.8-17.1v-236c11.7-11.6,23.3-17.1,34.8-17.1
				c20.4,0,30.6,17.9,30.6,52.8V-2032.5z"/>
			<path class="st0" d="M-852.6-2013.2c-15.5,22-30.1,32.8-44.3,32.8c-9.3,0-14.7-5.4-16.4-16.3c-0.7-2.3-0.7-10.8-0.7-27.2v-285.2
				h-70v306.2c0,27.4,2.3,45.9,6,57.6c7.3,19.7,22.8,28.8,45.3,28.8c26,0,52.4-15.5,80.2-47.5v42.3h70.3v-387.3h-70.3V-2013.2z"/>
			<path class="st0" d="M-792.4-2666.7c22.9,0,34-18.1,34-54.3v-164.6c0-36.3-11.1-54.3-34-54.3c-22.8,0-33.7,18.2-33.7,54.3v164.6
				C-826.1-2684.8-815.1-2666.7-792.4-2666.7z"/>
			<path class="st0" d="M-745-3485.7c-574.5,0-1040.4,465.9-1040.4,1040.5c0,574.6,465.9,1040.5,1040.4,1040.5
				c574.7,0,1040.5-465.9,1040.5-1040.5C295.5-3019.7-170.3-3485.7-745-3485.7z M-629.3-2999h70.8v288.1c0,16.6,0,25.2,0.7,27.6
				c1.6,11,7.1,16.6,16.8,16.6c14.2,0,29-11,44.7-33.2V-2999h70.9v391.2h-70.9v-42.6c-28.2,32.4-55,48-80.9,48
				c-22.9,0-38.6-9.3-45.7-29c-3.9-11.9-6.3-30.6-6.3-58.2V-2999L-629.3-2999z M-897-2871.4c0-41.8,7.1-72.4,22.1-92.1
				c19.6-26.8,47.3-40.2,82.5-40.2c35.6,0,63.3,13.4,82.7,40.2c15,19.7,22,50.3,22,92.1v137c0,41.6-7,72.4-22,92
				c-19.5,26.7-47.2,40.1-82.7,40.1c-35.2,0-62.9-13.3-82.5-40.1c-15-19.6-22.1-50.4-22.1-92V-2871.4z M-1086.6-3132.7l55.8,206.2
				l53.7-206.2h79.4l-94.6,312.4v212.7h-78.6v-212.7c-7.1-37.7-22.9-92.9-48-166.2c-16.6-48.7-33.8-97.5-50.4-146.2H-1086.6z
				 M-184.9-1887.6c-14.1,61.7-64.7,107.2-125.4,114.1c-144.1,16-289.7,16.1-434.8,16c-145.1,0.1-290.9,0-434.6-16
				c-60.9-6.9-111.3-52.4-125.6-114.1c-20.1-87.9-20.1-183.9-20.1-274.4c0-90.6,0.3-186.6,20.6-274.4
				c14.1-61.8,64.4-107.4,125.4-114.2c144-15.9,289.6-16,434.7-15.9c145.1-0.1,290.7,0,434.7,15.9c60.9,6.9,111.3,52.5,125.6,114.2
				c20.2,87.8,20,183.9,20,274.4C-164.5-2071.6-164.5-1975.5-184.9-1887.6z"/>
			<path class="st0" d="M-355.4-2313.7c-36,0-63.9,13.1-84,39.6c-15,19.6-21.6,49.9-21.6,91.3v135.6c0,41.1,7.4,71.6,22.5,90.9
				c20.1,26.5,48,39.7,84.9,39.7c36.6,0,65.4-13.8,84.9-41.9c8.3-12.5,13.8-26.5,16.2-42.1c0.7-7,1.6-22.7,1.6-45.3v-10.1h-71.7
				c0,28-0.9,43.6-1.4,47.5c-4.2,18.8-14.2,28-31.4,28c-24.2,0-36-17.8-36-53.5v-68.8H-251v-80.1c0-41.3-7-71.6-21.8-91.3
				C-292.4-2300.6-320.3-2313.7-355.4-2313.7z M-321.2-2161h-70v-35.9c0-35.9,11.7-53.8,35.2-53.8c23.1,0,34.9,17.9,34.9,53.8V-2161
				z"/>
		</g>
	</g>
	<g>
		<g>
			<path class="st0" d="M5343.5-4038.8c-605.9,0-1098.8,492.9-1098.8,1098.9c0,606,492.9,1098.9,1098.8,1098.9
				c605.9,0,1098.8-492.9,1098.8-1098.9C6442.4-3545.9,5949.6-4038.8,5343.5-4038.8z M5833.7-3191.5c0.5,10.9,0.7,22,0.7,32.8
				c0,334.3-254.3,719.6-719.6,719.6c-142.9,0-275.8-41.8-387.7-113.5c19.8,2.3,39.9,3.5,60.3,3.5c118.5,0,227.5-40.4,314.2-108.2
				c-110.7-2.2-204.1-75.1-236.3-175.7c15.4,2.9,31.1,4.6,47.6,4.6c22.9,0,45.5-3.1,66.6-8.8c-115.7-23.2-202.9-125.4-202.9-248.1
				c0-0.9,0-2.1,0-3.2c34.1,18.9,73.1,30.3,114.5,31.6c-67.8-45.3-112.3-122.8-112.3-210.6c0-46.2,12.3-89.8,34-127.2
				c124.7,153.1,311.2,253.9,521.3,264.3c-4.3-18.5-6.5-37.7-6.5-57.6c0-139.6,113.1-252.9,252.8-252.9
				c72.8,0,138.5,30.6,184.5,79.8c57.9-11.3,111.8-32.4,160.7-61.5c-18.9,59.1-59,108.8-111.3,140.1c51.2-6.2,100.1-19.8,145.3-39.9
				C5926.1-3271.5,5883.2-3227,5833.7-3191.5z"/>
		</g>
	</g>
	<g>
		<path class="st0" d="M1417.4,300.4C819.5,300.4,334.9,785,334.9,1382.7c0,597.9,484.6,1082.5,1082.5,1082.5
			c597.8,0,1082.4-484.6,1082.4-1082.5C2499.7,785,2015.2,300.4,1417.4,300.4z M1011.5,1924c-74.8,0-135.4-60.6-135.4-135.3
			c0-74.8,60.6-135.4,135.4-135.4s135.3,60.6,135.3,135.4C1146.8,1863.4,1086.2,1924,1011.5,1924z M1383.5,1924
			c0-279.8-227.6-507.4-507.5-507.4v-203c391.8,0,710.4,318.6,710.4,710.4H1383.5z M1789.4,1924c0-244-95-473.3-267.4-645.8
			c-172.5-172.4-401.9-267.5-645.9-267.5V807.8c298.2,0,578.5,116.1,789.4,326.9c210.8,210.8,327,491.1,327,789.3H1789.4z"/>
	</g>
	<path class="st0" d="M7602.6,300.4c-606.2,0-1097.7,491.4-1097.7,1097.7c0,606.3,491.5,1097.7,1097.7,1097.7
		c606.3,0,1097.8-491.3,1097.8-1097.7C8700.3,791.7,8208.8,300.4,7602.6,300.4z M7878.3,1398c0,275.5-224,499.5-499.5,499.5
		c-275.5,0-499.5-224.1-499.5-499.5c0-275.5,224-499.5,499.5-499.5c111.2,0,216.4,35.8,304.4,103.5l-116,150.8
		c-54.4-41.8-119.7-64-188.4-64c-170.4,0-309.3,138.7-309.3,309.3s138.8,309.3,309.3,309.3c137.4,0,254.1-90.1,294.3-214.1h-294.3
		v-190.3h499.5V1398z M8404.2,1460.2h-143v143.2h-124.5v-143.2h-143v-124.4h143v-143.2h124.5v143.2h143V1460.2z"/>
	<g>
		<g>
			<path class="st0" d="M-5452.1-4607.2c-596.4,0-1081.7,485.3-1081.7,1081.8c0,596.4,485.3,1081.7,1081.7,1081.7
				c596.4,0,1081.7-485.2,1081.7-1081.7C-4370.3-4121.8-4855.6-4607.2-5452.1-4607.2z M-5183.1-3487.4h-176.1
				c0,281.2,0,627.4,0,627.4h-260.8c0,0,0-342.8,0-627.4h-124V-3709h124v-143.4c0-102.7,48.9-263.2,263.2-263.2l193.3,0.7v215.3
				c0,0-117.5,0-140.3,0c-22.8,0-55.4,11.3-55.4,60.3v130.4h198.7L-5183.1-3487.4z"/>
		</g>
	</g>
</g>
</svg>
