<?xml version="1.0" encoding="utf-8"?>
<!-- Generator: Adobe Illustrator 19.1.0, SVG Export Plug-In . SVG Version: 6.00 Build 0)  -->
<svg version="1.1" id="Capa_1" xmlns="http://www.w3.org/2000/svg" xmlns:xlink="http://www.w3.org/1999/xlink" x="0px" y="0px"
	 viewBox="-288 366 156 37" style="enable-background:new -288 366 156 37;" xml:space="preserve">
<style type="text/css">
	.st0{fill:#FFFFFF;}
</style>
<g>
	<g>
		<g id="XMLID_456_">
			<path id="XMLID_459_" class="st0" d="M-256.7,390.2c-0.5-1.2-0.9-2.7,0.4-4.5c1-1.4,2-2.5,1.2-5.1c1.5,1.8,2,4,1.4,5.5
				C-254.4,388.1-256.1,388.4-256.7,390.2z"/>
			<path id="XMLID_458_" class="st0" d="M-260.7,390.7c-3.4-0.5-6.9-4.9-3.4-9.6c3.4-4.5,5.5-6.6,3.2-10c3.5,3,2,6.6-0.9,11
				C-263.2,384.4-264,388-260.7,390.7z"/>
			<path id="XMLID_457_" class="st0" d="M-270.6,392.6c0,0,1.4-0.2,5.1-1.2c1.9-0.5,4.1-0.1,5,0.7c0.8,0.8,1.1,1.8,1.2,2
				c0.1,0.2,0.2,0.8,0.2,0.8s0.3-0.9,0.4-1c0.1-0.1,0.5-0.1,0.8-0.9c0.2-0.6,0-1.5-1.1-2.2c-2.3-1.6-2.6-5.6-0.6-8.6
				c2.5-3.7,2.9-5.7,1.8-7.4c4,3.6,1.6,7.3,0.4,9.2c-1.1,1.6-1.5,3-1.2,4.6c0.1,0.4,0.1,0.9,0.4,1.4c0.3,0.4,0.7,1.6,1.5,1.4
				c1.2-0.4,2.3-0.2,4.3,0.2c3.3,0.7,4.6,0.9,4.6,0.9l2.5,3.4c0,0-6.1-1.2-8.2-1.5c-2.4-0.4-4.7,0.1-5.5,1.5c-0.8-1.4-3-1.8-5.4-1.5
				c-2.1,0.3-8.3,1.5-8.3,1.5L-270.6,392.6z"/>
		</g>
		<g id="XMLID_410_">
			<g id="XMLID_435_">
				<path id="XMLID_455_" class="st0" d="M-243.3,395.8v-0.2c0.4-0.1,0.6-0.1,0.8-0.3c0.2-0.2,0.3-0.4,0.4-0.8
					c0.1-0.2,0.1-0.6,0.2-1.2c0.1-0.5,0.2-1.1,0.2-1.8c0.1-0.6,0.1-1.2,0.2-1.6c0.1-0.4,0.1-0.7,0.1-0.9c0-0.4-0.1-0.6-0.3-0.8
					s-0.5-0.3-0.9-0.3v-0.2c0.2,0,0.3,0,0.5,0s0.4,0,0.8,0s0.6,0,0.8,0s0.3,0,0.4,0v0.2c-0.1,0.1-0.1,0.1-0.1,0.1
					c0,0.1-0.1,0.1-0.1,0.1c0,0.2,0.2,0.8,0.6,1.7c0,0.1,0,0.1,0.1,0.1l1.8,4l2.2-4.8c0,0,0,0,0-0.1c0.1-0.3,0.2-0.5,0.2-0.8
					c0-0.1,0-0.1,0-0.2s-0.1-0.1-0.1-0.1v-0.2c0.1,0,0.3,0,0.5,0s0.4,0,0.8,0s0.6,0,0.9,0c0.2,0,0.4,0,0.5,0v0.2
					c-0.4,0-0.7,0.1-0.9,0.4c-0.2,0.2-0.3,0.5-0.3,1c0,0.1,0,0.1,0,0.3c0,0.1,0,0.3,0,0.5l0.2,3.7c0.1,0.7,0.2,1.2,0.3,1.3
					c0.2,0.2,0.5,0.3,1,0.4v0.2c-0.4,0-0.7,0-1,0c-0.2,0-0.5,0-0.8,0c-0.4,0-1,0-2,0h-0.1v-0.2c0.5-0.1,1-0.2,1.2-0.4
					c0.2-0.2,0.3-0.5,0.3-0.9c0-0.1,0-0.2,0-0.2c0-0.1,0-0.1,0-0.1l-0.2-4.8l-1.8,3.8c-0.1,0.3-0.3,0.7-0.5,1.2s-0.4,1-0.7,1.6h-0.3
					c-0.1-0.3-0.3-0.7-0.4-1c-0.2-0.4-0.2-0.5-0.2-0.6l-2.1-4.8l-0.2,1.5c-0.1,0.7-0.1,1.3-0.2,1.9c-0.1,0.5-0.1,1-0.1,1.3
					c0,0.4,0.1,0.7,0.3,0.9s0.5,0.3,1.2,0.4v0.2c0,0-0.1,0-0.1,0c-0.7,0-1.3,0-1.6,0c-0.2,0-0.4,0-0.6,0
					C-242.6,395.8-242.9,395.8-243.3,395.8z"/>
				<path id="XMLID_452_" class="st0" d="M-230.8,392.2c0,1,0.2,1.8,0.7,2.4c0.5,0.6,1.1,0.9,1.8,0.9s1.3-0.3,1.8-0.9
					c0.4-0.5,0.7-1.3,0.7-2.3c0-0.4-0.1-0.8-0.2-1.2c-0.1-0.4-0.2-0.7-0.4-1c-0.2-0.4-0.5-0.7-0.9-0.9c-0.3-0.2-0.7-0.3-1.1-0.3
					c-0.7,0-1.3,0.3-1.8,0.9C-230.6,390.6-230.8,391.3-230.8,392.2z M-231.9,392.3c0-1,0.3-1.9,1-2.5c0.7-0.6,1.5-0.9,2.7-0.9
					c1.1,0,2,0.3,2.6,1c0.7,0.7,1,1.5,1,2.6c0,1-0.3,1.9-1,2.5c-0.7,0.6-1.6,0.9-2.7,0.9c-1.1,0-2-0.3-2.6-1
					C-231.6,394.3-231.9,393.4-231.9,392.3z"/>
				<path id="XMLID_451_" class="st0" d="M-224.2,395.8v-0.2c0.5,0,0.9-0.2,1-0.5s0.2-0.9,0.2-1.8v-1.8c0-0.1,0-0.2,0-0.4
					c0-0.1,0-0.2,0-0.3c0-0.3-0.1-0.5-0.1-0.7s-0.2-0.3-0.3-0.4s-0.2-0.2-0.4-0.2c-0.2-0.1-0.4-0.1-0.5-0.1v-0.2c0.1,0,0.2,0,0.4,0
					s0.4,0,0.4,0c0.1,0,0.2,0,0.4,0s0.3,0,0.4,0l4.8,5.2V392c0-0.9,0-1.4-0.1-1.7c-0.1-0.3-0.1-0.5-0.2-0.7
					c-0.1-0.1-0.2-0.2-0.4-0.3s-0.4-0.1-0.7-0.1V389c0.2,0,0.4,0,0.5,0c0.2,0,0.5,0,0.9,0c0.4,0,0.7,0,0.9,0s0.4,0,0.5,0v0.2h-0.1
					c-0.4,0-0.6,0.2-0.7,0.5c-0.1,0.4-0.2,1-0.2,2v2.1c0,0.5,0,0.9,0,1.3c0,0.4,0,0.7,0,1l0,0c-0.2-0.2-0.4-0.5-0.6-0.7
					c-0.2-0.2-0.4-0.4-0.4-0.4l-4.1-4.3v1.9c0,0.9,0,1.6,0.1,1.9c0.1,0.3,0.1,0.5,0.2,0.7c0.1,0.1,0.2,0.2,0.4,0.3
					c0.2,0.1,0.4,0.2,0.8,0.2v0.2l0,0c-0.7,0-1.2,0-1.5,0c-0.2,0-0.4,0-0.6,0C-223.6,395.8-223.9,395.8-224.2,395.8z"/>
				<path id="XMLID_450_" class="st0" d="M-212.6,393.7c0,0.5,0,0.9,0.1,1c0.1,0.2,0.1,0.4,0.2,0.4c0.1,0.1,0.2,0.2,0.4,0.2
					s0.4,0.1,0.7,0.2v0.2c-0.5,0-0.9,0-1.1,0s-0.5,0-0.7,0c-0.4,0-1,0-1.8,0l0,0v-0.2c0.2-0.1,0.5-0.1,0.7-0.2
					c0.2-0.1,0.3-0.1,0.4-0.2c0.1-0.1,0.2-0.2,0.2-0.4c0.1-0.2,0.1-0.5,0.1-1v-4.4h-0.7c-0.6,0-1,0.1-1.3,0.3
					c-0.3,0.2-0.5,0.5-0.6,1h-0.2l0.2-1.9h0.1l0.3,0.3c0.3,0,0.7,0,1.3,0c0.6,0,1,0,1.3,0c0.3,0,0.7,0,1.3,0c0.5,0,1,0,1.3,0
					l0.3-0.3h0.1l0.2,1.9l-0.2,0.1c-0.1-0.5-0.3-0.8-0.6-1c-0.3-0.2-0.7-0.3-1.3-0.3h-0.7L-212.6,393.7L-212.6,393.7z"/>
				<path id="XMLID_449_" class="st0" d="M-209.7,395.8v-0.2c0.5-0.1,0.9-0.2,1-0.3c0.2-0.2,0.2-0.5,0.2-1v-3.7
					c0-0.5-0.1-0.9-0.2-1.1c-0.2-0.2-0.5-0.2-0.9-0.3V389c0.3,0,0.7,0,1,0c0.4,0,0.9,0,1.5,0c0.8,0,1.3,0,1.7,0s0.7,0,1,0
					c0,0.2-0.1,0.4-0.1,0.7c0,0.2-0.1,0.5-0.1,0.9h-0.1c-0.1-0.5-0.2-0.8-0.4-1s-0.7-0.3-1.3-0.3h-1.3v2.8h1c0.5,0,0.9-0.1,1.1-0.2
					s0.3-0.4,0.4-0.7h0.2c0,0.2,0,0.4,0,0.9c0,0.4,0,0.7,0,0.9v0.5h-0.1c-0.1-0.4-0.1-0.5-0.4-0.7c-0.2-0.1-0.5-0.2-1.1-0.2h-1v1.7
					c0,0.5,0.1,0.9,0.3,1c0.2,0.2,0.6,0.2,1.3,0.2c0.5,0,1-0.1,1.3-0.4c0.3-0.3,0.5-0.7,0.7-1.3h0.2c0,0.4-0.1,0.7-0.1,1
					c-0.1,0.3-0.1,0.7-0.2,0.9c-0.4,0-1,0-1.5,0s-1.2,0-1.8,0c-0.6,0-1,0-1.3,0C-209.1,395.8-209.4,395.8-209.7,395.8z"/>
				<path id="XMLID_448_" class="st0" d="M-203.7,395.8v-0.2c0.3-0.1,0.5-0.1,0.7-0.2c0.1-0.1,0.2-0.4,0.4-0.7
					c0.1-0.2,0.1-0.5,0.2-1c0.1-0.4,0.1-0.9,0.2-1.5c0.1-0.5,0.1-1,0.1-1.3c0.1-0.4,0.1-0.6,0.1-0.7c0-0.3-0.1-0.5-0.2-0.7
					c-0.2-0.1-0.4-0.2-0.8-0.3v-0.2c0.1,0,0.2,0,0.4,0c0.1,0,0.4,0,0.7,0s0.5,0,0.7,0c0.1,0,0.2,0,0.4,0v0.1
					c-0.1,0.1-0.1,0.1-0.1,0.1s0,0.1,0,0.1c0,0.2,0.2,0.7,0.5,1.5v0.1l1.5,3.4l1.8-4.1c0,0,0,0,0-0.1c0.1-0.2,0.2-0.5,0.2-0.7
					c0-0.1,0-0.1,0-0.2s-0.1-0.1-0.1-0.1v-0.1c0.1,0,0.2,0,0.4,0s0.4,0,0.7,0c0.3,0,0.5,0,0.7,0c0.2,0,0.3,0,0.4,0v0.2
					c-0.4,0-0.6,0.1-0.8,0.3c-0.2,0.2-0.2,0.5-0.2,0.9c0,0.1,0,0.1,0,0.2s0,0.2,0,0.4l0.2,3.1c0.1,0.6,0.1,1,0.3,1.2
					c0.1,0.2,0.4,0.2,0.9,0.3v0.2c-0.4,0-0.6,0-0.9,0c-0.2,0-0.4,0-0.7,0c-0.4,0-0.9,0-1.6,0h-0.1v-0.2c0.5-0.1,0.8-0.2,1-0.3
					c0.2-0.1,0.2-0.4,0.2-0.8c0-0.1,0-0.1,0-0.2s0-0.1,0-0.1l-0.1-3.9l-1.5,3.3c-0.1,0.3-0.3,0.6-0.4,1c-0.2,0.4-0.4,0.9-0.6,1.4
					h-0.1c-0.1-0.3-0.2-0.5-0.4-0.9c-0.1-0.3-0.2-0.5-0.2-0.5l-1.8-4l-0.1,1.3c-0.1,0.5-0.1,1.1-0.1,1.6c-0.1,0.5-0.1,0.9-0.1,1.2
					c0,0.4,0.1,0.6,0.2,0.8c0.2,0.1,0.5,0.2,1,0.3v0.2h-0.1c-0.6,0-1.1,0-1.4,0c-0.2,0-0.4,0-0.5,0
					C-203.1,395.8-203.4,395.8-203.7,395.8z"/>
				<path id="XMLID_445_" class="st0" d="M-192.9,392.2c0,1,0.2,1.8,0.7,2.4c0.5,0.6,1.1,0.9,1.8,0.9s1.3-0.3,1.8-0.9
					c0.4-0.5,0.7-1.3,0.7-2.3c0-0.4-0.1-0.8-0.2-1.2c-0.1-0.4-0.2-0.7-0.4-1c-0.2-0.4-0.5-0.7-0.9-0.9c-0.3-0.2-0.7-0.3-1.1-0.3
					c-0.7,0-1.3,0.3-1.8,0.9C-192.6,390.6-192.9,391.3-192.9,392.2z M-194,392.3c0-1,0.3-1.9,1-2.5c0.7-0.6,1.5-0.9,2.7-0.9
					c1.1,0,2,0.3,2.6,1c0.7,0.7,1,1.5,1,2.6c0,1-0.3,1.9-1,2.5c-0.7,0.6-1.6,0.9-2.7,0.9c-1.1,0-2-0.3-2.6-1
					C-193.6,394.3-194,393.4-194,392.3z"/>
				<path id="XMLID_442_" class="st0" d="M-184,392.4c0.7-0.1,1.2-0.2,1.5-0.5c0.4-0.2,0.5-0.7,0.5-1.1c0-0.5-0.2-0.9-0.5-1.2
					c-0.4-0.3-0.9-0.4-1.5-0.4V392.4z M-186.1,395.8v-0.2c0.5-0.1,0.8-0.1,1-0.3c0.2-0.2,0.2-0.6,0.2-1.3v-3.2c0-0.4,0-0.7-0.1-0.9
					c-0.1-0.2-0.1-0.3-0.2-0.4c-0.1-0.1-0.2-0.1-0.3-0.2c-0.1-0.1-0.3-0.1-0.5-0.1V389c0.7,0,1.5,0,2.3,0c0.2,0,0.3,0,0.4,0
					c0.9,0,1.5,0.1,1.9,0.4c0.4,0.3,0.6,0.7,0.6,1.3c0,0.4-0.1,0.7-0.3,0.9c-0.2,0.2-0.5,0.5-0.9,0.7c0.6,1.2,1.2,2,1.7,2.5
					c0.5,0.5,1.1,0.9,1.7,1v0.2c-0.1,0-0.1,0-0.2,0c-0.9-0.1-1.4-0.1-1.7-0.2c-0.2-0.1-0.4-0.2-0.5-0.4c-0.2-0.2-0.4-0.4-0.6-0.9
					c-0.2-0.2-0.4-0.5-0.5-0.9c-0.2-0.4-0.3-0.5-0.4-0.6c-0.1-0.1-0.1-0.1-0.2-0.2c-0.1-0.1-0.3-0.1-0.5-0.1l-0.5-0.1v1.4
					c0,0.7,0.1,1.1,0.3,1.3c0.2,0.2,0.5,0.3,1.1,0.4v0.2c-0.5,0-0.9,0-1.1,0c-0.2,0-0.5,0-0.7,0s-0.4,0-0.7,0
					C-185.3,395.8-185.6,395.8-186.1,395.8z"/>
				<path id="XMLID_441_" class="st0" d="M-178.7,395.8v-0.2c0.5-0.1,0.9-0.2,1-0.3c0.2-0.2,0.2-0.5,0.2-1v-3.7
					c0-0.5-0.1-0.9-0.2-1.1c-0.2-0.2-0.5-0.2-0.9-0.3V389c0.3,0,0.7,0,1,0c0.4,0,0.9,0,1.5,0c0.8,0,1.3,0,1.7,0c0.4,0,0.7,0,1,0
					c0,0.2-0.1,0.4-0.1,0.7c0,0.2-0.1,0.5-0.1,0.9h-0.1c-0.1-0.5-0.2-0.8-0.4-1c-0.2-0.2-0.7-0.3-1.3-0.3h-1.3v2.8h1
					c0.5,0,0.9-0.1,1.1-0.2c0.2-0.1,0.3-0.4,0.4-0.7h0.2c0,0.2,0,0.4,0,0.9c0,0.4,0,0.7,0,0.9v0.5h-0.1c-0.1-0.4-0.1-0.5-0.4-0.7
					c-0.2-0.1-0.5-0.2-1.1-0.2h-1v1.7c0,0.5,0.1,0.9,0.3,1c0.2,0.2,0.6,0.2,1.3,0.2c0.5,0,1-0.1,1.3-0.4c0.3-0.3,0.5-0.7,0.7-1.3
					h0.2c0,0.4-0.1,0.7-0.1,1c-0.1,0.3-0.1,0.7-0.2,0.9c-0.4,0-1,0-1.5,0s-1.2,0-1.8,0c-0.6,0-1,0-1.3,0
					C-178.2,395.8-178.5,395.8-178.7,395.8z"/>
				<path id="XMLID_440_" class="st0" d="M-172.3,395.8v-0.2c0.5-0.1,0.9-0.1,1-0.4c0.2-0.2,0.2-0.6,0.2-1.3v-3.3
					c0-0.6-0.1-1-0.2-1.2c-0.2-0.2-0.5-0.3-1-0.4v-0.2c0.2,0,0.4,0,0.6,0c0.2,0,0.5,0,1,0c0.5,0,0.8,0,1,0c0.2,0,0.4,0,0.7,0v0.2
					c-0.5,0.1-0.9,0.2-1,0.4c-0.2,0.2-0.2,0.5-0.2,1.2v3.3c0,0.5,0,0.8,0,1c0,0.2,0.1,0.3,0.1,0.4c0.1,0.1,0.1,0.1,0.3,0.2
					c0.1,0,0.4,0.1,0.9,0.1c0.4,0,0.8,0,1-0.1c0.2-0.1,0.4-0.1,0.5-0.2c0.2-0.1,0.4-0.3,0.5-0.5c0.2-0.2,0.4-0.5,0.5-0.9l0.1,0.1
					l-0.5,1.8c-0.6,0-1.1,0-1.6,0c-0.5,0-0.9,0-1.3,0c-0.2,0-0.7,0-1.3,0C-171.5,395.8-171.9,395.8-172.3,395.8z"/>
				<path id="XMLID_437_" class="st0" d="M-164.6,392.2c0,1,0.2,1.8,0.7,2.4c0.5,0.6,1.1,0.9,1.8,0.9c0.7,0,1.3-0.3,1.8-0.9
					c0.4-0.5,0.7-1.3,0.7-2.3c0-0.4-0.1-0.8-0.2-1.2c-0.1-0.4-0.2-0.7-0.4-1c-0.2-0.4-0.5-0.7-0.9-0.9c-0.3-0.2-0.7-0.3-1.1-0.3
					c-0.7,0-1.3,0.3-1.8,0.9C-164.3,390.6-164.6,391.3-164.6,392.2z M-165.7,392.3c0-1,0.3-1.9,1-2.5c0.7-0.6,1.5-0.9,2.7-0.9
					c1.1,0,2,0.3,2.6,1c0.7,0.7,1,1.5,1,2.6c0,1-0.3,1.9-1,2.5c-0.7,0.6-1.6,0.9-2.7,0.9s-2-0.3-2.6-1
					C-165.4,394.3-165.7,393.4-165.7,392.3z"/>
				<path id="XMLID_436_" class="st0" d="M-157.6,393.7h0.2c0.2,0.6,0.4,1.1,0.8,1.4c0.4,0.3,0.7,0.5,1.2,0.5c0.4,0,0.7-0.1,0.9-0.4
					c0.2-0.2,0.4-0.5,0.4-0.9c0-0.3-0.1-0.5-0.2-0.8c-0.2-0.2-0.4-0.5-0.7-0.7l-0.8-0.4c-0.4-0.2-0.7-0.5-0.9-0.8
					c-0.2-0.3-0.3-0.6-0.3-1c0-0.5,0.2-1,0.6-1.3c0.4-0.4,0.9-0.5,1.5-0.5c0.3,0,0.5,0.1,0.8,0.1c0.2,0.1,0.5,0.2,0.7,0.3
					c0,0.2-0.1,0.4-0.1,0.7c0,0.2-0.1,0.5-0.1,0.9h-0.2c-0.1-0.5-0.2-1-0.5-1.2c-0.2-0.3-0.5-0.4-0.9-0.4s-0.6,0.1-0.9,0.4
					c-0.2,0.2-0.4,0.5-0.4,0.9c0,0.2,0.1,0.4,0.2,0.7c0.1,0.2,0.4,0.4,0.6,0.5l1.1,0.7c0.4,0.2,0.7,0.5,0.9,0.8
					c0.2,0.3,0.2,0.6,0.2,1c0,0.5-0.2,1-0.7,1.4c-0.4,0.4-1,0.5-1.6,0.5c-0.4,0-0.7-0.1-1-0.1c-0.3-0.1-0.6-0.2-0.9-0.4
					c-0.1-0.2-0.1-0.5-0.1-0.8C-157.6,394.3-157.6,394-157.6,393.7z"/>
			</g>
			<g id="XMLID_411_">
				<path id="XMLID_434_" class="st0" d="M-241.9,381.2v-2.9c0-0.5,0-0.9-0.1-1c-0.1-0.2-0.1-0.3-0.2-0.4c-0.1-0.1-0.3-0.2-0.5-0.2
					c-0.2-0.1-0.4-0.1-0.6-0.1v-0.2c0.2,0,0.5,0,0.8,0c0.2,0,0.7,0,1.2,0s1,0,1.3,0c0.3,0,0.5,0,0.8,0v0.2c-0.6,0-1,0.1-1.3,0.4
					c-0.2,0.2-0.3,0.7-0.3,1.4v2.8c0,0.5,0.1,1,0.1,1.3c0.1,0.3,0.2,0.5,0.4,0.8c0.2,0.2,0.5,0.4,0.9,0.5c0.4,0.1,0.7,0.2,1.2,0.2
					c0.5,0,1-0.1,1.3-0.3c0.4-0.2,0.6-0.5,0.9-1c0.1-0.2,0.2-0.5,0.2-1c0.1-0.4,0.1-1.1,0.1-2s0-1.5-0.1-1.8
					c-0.1-0.4-0.1-0.6-0.2-0.8c-0.1-0.2-0.3-0.4-0.5-0.4c-0.2-0.1-0.5-0.1-0.9-0.2v-0.2c0.2,0,0.4,0,0.7,0c0.2,0,0.5,0,1,0
					s0.8,0,1,0c0.2,0,0.4,0,0.7,0v0.2l0,0c-0.4,0-0.7,0.2-0.9,0.5c-0.2,0.4-0.2,1.2-0.2,2.6c0,0.1,0,0.3,0,0.5
					c0,1.3-0.1,2.2-0.3,2.6c-0.2,0.5-0.6,0.9-1.2,1.2c-0.5,0.3-1.2,0.4-2,0.4c-0.6,0-1.2-0.1-1.6-0.2c-0.4-0.2-0.8-0.4-1-0.7
					c-0.2-0.2-0.3-0.5-0.4-0.8C-241.8,382.3-241.9,381.9-241.9,381.2z"/>
				<path id="XMLID_433_" class="st0" d="M-233.9,384.2v-0.2c0.5,0,0.9-0.2,1-0.5s0.2-0.9,0.2-1.8v-1.8c0-0.1,0-0.2,0-0.4
					c0-0.1,0-0.2,0-0.3c0-0.3-0.1-0.5-0.1-0.7c-0.1-0.2-0.2-0.3-0.3-0.4s-0.2-0.2-0.4-0.2c-0.2-0.1-0.4-0.1-0.5-0.1v-0.2
					c0.1,0,0.2,0,0.4,0s0.4,0,0.4,0c0.1,0,0.2,0,0.4,0s0.3,0,0.4,0l4.8,5.2v-2.3c0-0.9,0-1.4-0.1-1.7c-0.1-0.3-0.1-0.5-0.2-0.7
					c-0.1-0.1-0.2-0.2-0.4-0.3s-0.4-0.1-0.7-0.1v-0.2c0.2,0,0.4,0,0.5,0c0.2,0,0.5,0,0.9,0c0.4,0,0.7,0,0.9,0c0.2,0,0.4,0,0.5,0v0.2
					h-0.1c-0.4,0-0.6,0.2-0.7,0.5c-0.1,0.4-0.2,1-0.2,2v2.1c0,0.5,0,0.9,0,1.3c0,0.4,0,0.7,0,1h-0.1c-0.2-0.2-0.4-0.5-0.6-0.7
					c-0.2-0.2-0.4-0.4-0.4-0.4l-4.1-4.3v1.9c0,0.9,0,1.6,0.1,1.9c0.1,0.3,0.1,0.5,0.2,0.7c0.1,0.1,0.2,0.2,0.4,0.3s0.4,0.2,0.8,0.2
					v0.2l0,0c-0.7,0-1.2,0-1.5,0c-0.2,0-0.4,0-0.6,0C-233.2,384.2-233.5,384.2-233.9,384.2z"/>
				<path id="XMLID_432_" class="st0" d="M-225.8,384.2v-0.2c0.5,0,0.9-0.1,1-0.3c0.2-0.2,0.2-0.5,0.2-1.2v-3.5c0-0.6-0.1-1-0.2-1.2
					c-0.2-0.2-0.5-0.3-1-0.3v-0.2c0.2,0,0.5,0,0.9,0c0.4,0,0.7,0,0.9,0c0.2,0,0.5,0,0.9,0c0.4,0,0.7,0,0.9,0v0.2
					c-0.5,0.1-0.9,0.1-1,0.3c-0.2,0.2-0.2,0.5-0.2,1.2v3.5c0,0.6,0.1,1,0.2,1.2c0.2,0.2,0.5,0.3,1,0.3v0.2c-0.5,0-0.9,0-1.1,0
					s-0.4,0-0.7,0c-0.2,0-0.4,0-0.7,0C-224.9,384.2-225.3,384.2-225.8,384.2z"/>
				<path id="XMLID_431_" class="st0" d="M-218.5,384.6l-2.3-5.5c-0.2-0.5-0.4-0.9-0.6-1.1c-0.2-0.2-0.4-0.3-0.7-0.3v-0.2
					c0.2,0,0.4,0,0.5,0c0.2,0,0.5,0,1,0s0.8,0,1,0c0.2,0,0.4,0,0.6,0v0.2c-0.3,0-0.5,0.1-0.7,0.1s-0.2,0.2-0.2,0.4
					c0,0.1,0.1,0.3,0.1,0.6c0.1,0.3,0.2,0.7,0.4,1.1l1.3,3.2l1.3-3.2c0.2-0.4,0.3-0.8,0.4-1c0.1-0.2,0.1-0.5,0.1-0.6
					c0-0.2-0.1-0.4-0.2-0.4c-0.2-0.1-0.4-0.2-0.9-0.2v-0.2c0.2,0,0.4,0,0.5,0c0.2,0,0.5,0,0.9,0c0.4,0,0.7,0,0.9,0
					c0.2,0,0.4,0,0.5,0v0.2h-0.1c-0.3,0-0.6,0.1-0.9,0.4c-0.2,0.3-0.5,0.9-0.9,1.8l-1.2,2.9c-0.1,0.1-0.1,0.3-0.3,0.8
					C-218.1,384-218.3,384.4-218.5,384.6C-218.4,384.6-218.5,384.6-218.5,384.6z"/>
				<path id="XMLID_430_" class="st0" d="M-214.6,384.2v-0.2c0.5-0.1,0.9-0.2,1-0.3c0.2-0.2,0.2-0.5,0.2-1v-3.7
					c0-0.5-0.1-0.9-0.2-1.1c-0.2-0.2-0.5-0.2-0.9-0.3v-0.2c0.3,0,0.7,0,1,0c0.4,0,0.9,0,1.5,0c0.8,0,1.3,0,1.7,0c0.4,0,0.7,0,1,0
					c0,0.2-0.1,0.4-0.1,0.7c0,0.2-0.1,0.5-0.1,0.9h-0.1c-0.1-0.5-0.2-0.8-0.4-1c-0.2-0.2-0.7-0.3-1.3-0.3h-1.3v2.8h1
					c0.5,0,0.9-0.1,1.1-0.2s0.3-0.4,0.4-0.7h0.2c0,0.2,0,0.4,0,0.9c0,0.4,0,0.7,0,0.9v0.5h-0.1c-0.1-0.4-0.1-0.5-0.4-0.7
					c-0.2-0.1-0.5-0.2-1.1-0.2h-1v1.7c0,0.5,0.1,0.9,0.3,1c0.2,0.2,0.6,0.2,1.3,0.2c0.5,0,1-0.1,1.3-0.4c0.3-0.3,0.5-0.7,0.7-1.3
					h0.2c0,0.4-0.1,0.7-0.1,1c-0.1,0.3-0.1,0.7-0.2,0.9c-0.4,0-1,0-1.5,0s-1.2,0-1.8,0c-0.6,0-1,0-1.3,0
					C-213.9,384.2-214.2,384.2-214.6,384.2z"/>
				<path id="XMLID_427_" class="st0" d="M-205.8,380.9c0.7-0.1,1.2-0.2,1.5-0.5s0.5-0.7,0.5-1.1c0-0.5-0.2-0.9-0.5-1.2
					c-0.4-0.3-0.9-0.4-1.5-0.4V380.9z M-208,384.2v-0.2c0.5-0.1,0.8-0.1,1-0.3c0.2-0.2,0.2-0.6,0.2-1.3v-3.2c0-0.4,0-0.7-0.1-0.9
					c-0.1-0.2-0.1-0.3-0.2-0.4c-0.1-0.1-0.2-0.1-0.3-0.2c-0.1-0.1-0.3-0.1-0.5-0.1v-0.2c0.7,0,1.5,0,2.3,0c0.2,0,0.3,0,0.4,0
					c0.9,0,1.5,0.1,1.9,0.4c0.4,0.3,0.6,0.7,0.6,1.3c0,0.4-0.1,0.7-0.3,0.9c-0.2,0.2-0.5,0.5-0.9,0.7c0.6,1.2,1.2,2,1.7,2.5
					c0.5,0.5,1.1,0.9,1.7,1v0.2c-0.1,0-0.1,0-0.2,0c-0.9-0.1-1.4-0.1-1.7-0.2c-0.2-0.1-0.4-0.2-0.5-0.4c-0.2-0.2-0.4-0.4-0.6-0.9
					c-0.2-0.2-0.4-0.5-0.5-0.9c-0.2-0.4-0.3-0.5-0.4-0.6c-0.1-0.1-0.1-0.1-0.2-0.2c-0.1-0.1-0.3-0.1-0.5-0.1l-0.5-0.1v1.4
					c0,0.7,0.1,1.1,0.3,1.3c0.2,0.2,0.5,0.3,1.1,0.4v0.2c-0.5,0-0.9,0-1.1,0s-0.5,0-0.7,0s-0.4,0-0.7,0
					C-207.2,384.2-207.5,384.2-208,384.2z"/>
				<path id="XMLID_426_" class="st0" d="M-200.4,382.2h0.2c0.2,0.6,0.4,1.1,0.8,1.4s0.7,0.5,1.2,0.5c0.4,0,0.7-0.1,0.9-0.4
					c0.2-0.2,0.4-0.5,0.4-0.9c0-0.3-0.1-0.5-0.2-0.8c-0.2-0.2-0.4-0.5-0.7-0.7l-0.8-0.4c-0.4-0.2-0.7-0.5-0.9-0.8
					c-0.2-0.3-0.3-0.6-0.3-1c0-0.5,0.2-1,0.6-1.3c0.4-0.4,0.9-0.5,1.5-0.5c0.3,0,0.5,0.1,0.8,0.1c0.2,0.1,0.5,0.2,0.7,0.3
					c0,0.2-0.1,0.4-0.1,0.7c0,0.2-0.1,0.5-0.1,0.9h-0.2c-0.1-0.5-0.2-1-0.5-1.2c-0.2-0.3-0.5-0.4-0.9-0.4s-0.6,0.1-0.9,0.4
					c-0.2,0.2-0.4,0.5-0.4,0.9c0,0.2,0.1,0.4,0.2,0.7c0.1,0.2,0.4,0.4,0.6,0.5l1.1,0.7c0.4,0.2,0.7,0.5,0.9,0.8
					c0.2,0.3,0.2,0.6,0.2,1c0,0.5-0.2,1-0.7,1.4c-0.4,0.4-1,0.5-1.6,0.5c-0.4,0-0.7-0.1-1-0.1c-0.3-0.1-0.6-0.2-0.9-0.4
					c-0.1-0.2-0.1-0.5-0.1-0.8C-200.3,382.8-200.3,382.5-200.4,382.2z"/>
				<path id="XMLID_425_" class="st0" d="M-195.3,384.2v-0.2c0.5,0,0.9-0.1,1-0.3c0.2-0.2,0.2-0.5,0.2-1.2v-3.5c0-0.6-0.1-1-0.2-1.2
					c-0.2-0.2-0.5-0.3-1-0.3v-0.2c0.2,0,0.5,0,0.9,0c0.4,0,0.7,0,0.9,0s0.5,0,0.9,0c0.4,0,0.7,0,0.9,0v0.2c-0.5,0.1-0.9,0.1-1,0.3
					c-0.2,0.2-0.2,0.5-0.2,1.2v3.5c0,0.6,0.1,1,0.2,1.2c0.2,0.2,0.5,0.3,1,0.3v0.2c-0.5,0-0.9,0-1.1,0s-0.4,0-0.7,0
					c-0.2,0-0.4,0-0.7,0C-194.5,384.2-194.8,384.2-195.3,384.2z"/>
				<path id="XMLID_422_" class="st0" d="M-189.3,382.5c0,0.6,0.1,1,0.3,1.2s0.5,0.3,1.2,0.3c0.7,0,1.4-0.2,1.8-0.8
					c0.5-0.5,0.7-1.3,0.7-2.1c0-1-0.4-1.9-1-2.5c-0.7-0.6-1.6-0.9-2.9-0.9h-0.1L-189.3,382.5L-189.3,382.5z M-191.5,384.2v-0.2
					c0.5-0.1,0.9-0.1,1-0.3c0.2-0.2,0.2-0.5,0.2-1v-3.8c0-0.4-0.1-0.7-0.2-0.9c-0.2-0.2-0.5-0.3-0.9-0.3v-0.2c0.5,0,1.1,0,1.7,0
					s1,0,1,0c1.4,0,2.5,0.3,3.3,0.9c0.8,0.6,1.2,1.5,1.2,2.5s-0.4,1.9-1.2,2.4c-0.8,0.6-1.8,0.9-3.2,0.9c-0.2,0-0.7,0-1.4,0
					C-190.6,384.2-191.1,384.2-191.5,384.2z"/>
				<path id="XMLID_419_" class="st0" d="M-181.7,381h2l-1-2.7L-181.7,381z M-184,384.2v-0.2c0.2-0.1,0.4-0.1,0.5-0.1
					s0.2-0.1,0.3-0.2c0.1-0.1,0.4-0.9,1-2.3c0.1-0.3,0.2-0.5,0.2-0.7l1.1-2.9l-0.1-0.2c0.1-0.1,0.2-0.1,0.4-0.2
					c0.1-0.1,0.2-0.2,0.4-0.4l2.1,5.8c0.2,0.5,0.4,0.8,0.5,1c0.2,0.2,0.4,0.2,0.7,0.2v0.2c-0.4,0-0.7,0-0.9,0c-0.2,0-0.4,0-0.5,0
					s-0.4,0-0.5,0s-0.5,0-0.9,0v-0.2c0.2,0,0.4-0.1,0.5-0.2c0.1-0.1,0.2-0.2,0.2-0.4c0-0.1,0-0.2-0.1-0.3c0-0.1-0.1-0.2-0.1-0.4
					l-0.5-1.4h-2.3l-0.2,0.5c-0.1,0.4-0.2,0.7-0.3,0.9c-0.1,0.2-0.1,0.4-0.1,0.5c0,0.2,0.1,0.4,0.2,0.4c0.2,0.1,0.4,0.2,0.9,0.2v0.2
					l0,0c-0.6,0-1.1,0-1.4,0c-0.2,0-0.4,0-0.5,0C-183.4,384.2-183.7,384.2-184,384.2z"/>
				<path id="XMLID_416_" class="st0" d="M-174.6,382.5c0,0.6,0.1,1,0.3,1.2c0.2,0.2,0.5,0.3,1.2,0.3c0.7,0,1.4-0.2,1.8-0.8
					c0.5-0.5,0.7-1.3,0.7-2.1c0-1-0.4-1.9-1-2.5s-1.6-0.9-2.9-0.9h-0.1L-174.6,382.5L-174.6,382.5z M-176.8,384.2v-0.2
					c0.5-0.1,0.9-0.1,1-0.3c0.2-0.2,0.2-0.5,0.2-1v-3.8c0-0.4-0.1-0.7-0.2-0.9c-0.2-0.2-0.5-0.3-0.9-0.3v-0.2c0.5,0,1.1,0,1.7,0
					c0.6,0,1,0,1,0c1.4,0,2.5,0.3,3.3,0.9c0.8,0.6,1.2,1.5,1.2,2.5s-0.4,1.9-1.2,2.4c-0.8,0.6-1.8,0.9-3.2,0.9c-0.2,0-0.7,0-1.4,0
					C-175.8,384.2-176.4,384.2-176.8,384.2z"/>
				<path id="XMLID_413_" class="st0" d="M-164.5,382.5c0,0.6,0.1,1,0.3,1.2s0.5,0.3,1.2,0.3c0.7,0,1.4-0.2,1.9-0.8
					c0.5-0.5,0.7-1.3,0.7-2.1c0-1-0.4-1.9-1-2.5s-1.6-0.9-2.9-0.9h-0.2V382.5z M-166.7,384.2v-0.2c0.5-0.1,0.9-0.1,1-0.3
					c0.2-0.2,0.2-0.5,0.2-1v-3.8c0-0.4-0.1-0.7-0.2-0.9c-0.2-0.2-0.5-0.3-0.9-0.3v-0.2c0.5,0,1.1,0,1.7,0s1,0,1,0
					c1.4,0,2.5,0.3,3.3,0.9c0.8,0.6,1.2,1.5,1.2,2.5s-0.4,1.9-1.2,2.4c-0.8,0.6-1.8,0.9-3.2,0.9c-0.2,0-0.7,0-1.4,0
					C-165.8,384.2-166.3,384.2-166.7,384.2z"/>
				<path id="XMLID_412_" class="st0" d="M-159.3,384.2v-0.2c0.5-0.1,0.9-0.2,1-0.3c0.2-0.2,0.2-0.5,0.2-1v-3.7
					c0-0.5-0.1-0.9-0.2-1.1c-0.2-0.2-0.5-0.2-0.9-0.3v-0.2c0.3,0,0.7,0,1,0s0.9,0,1.5,0c0.8,0,1.3,0,1.7,0c0.4,0,0.7,0,1,0
					c0,0.2-0.1,0.4-0.1,0.7c0,0.2-0.1,0.5-0.1,0.9h-0.1c-0.1-0.5-0.2-0.8-0.4-1c-0.2-0.2-0.7-0.3-1.3-0.3h-1.3v2.8h1
					c0.5,0,0.9-0.1,1.1-0.2c0.2-0.1,0.3-0.4,0.4-0.7h0.2c0,0.2,0,0.4,0,0.9c0,0.4,0,0.7,0,0.9v0.5h-0.1c-0.1-0.4-0.1-0.5-0.4-0.7
					c-0.2-0.1-0.5-0.2-1.1-0.2h-1v1.7c0,0.5,0.1,0.9,0.3,1c0.2,0.2,0.6,0.2,1.3,0.2c0.5,0,1-0.1,1.3-0.4c0.3-0.3,0.5-0.7,0.7-1.3
					h0.2c0,0.4-0.1,0.7-0.1,1c-0.1,0.3-0.1,0.7-0.2,0.9c-0.4,0-1,0-1.5,0s-1.2,0-1.8,0s-1,0-1.3,0
					C-158.7,384.2-159,384.2-159.3,384.2z"/>
			</g>
		</g>
	</g>
</g>
</svg>
