<?xml version="1.0" encoding="utf-8"?>
<!-- Generator: Adobe Illustrator 19.1.0, SVG Export Plug-In . SVG Version: 6.00 Build 0)  -->
<svg version="1.1" id="Layer_1" xmlns="http://www.w3.org/2000/svg" xmlns:xlink="http://www.w3.org/1999/xlink" x="0px" y="0px"
	 viewBox="-327 369.2 132.3 31.8" style="enable-background:new -327 369.2 132.3 31.8;" xml:space="preserve">
<style type="text/css">
	.st0{fill:#FFFFFF;}
	.st1{opacity:0.3;}
</style>
<g>
	<g>
		<path class="st0" d="M-305.8,389.9c-0.3,0-0.4-0.1-0.4-1.7c-0.5,0.6-0.7,0.8-1.1,1.1c-0.7,0.5-1.7,0.8-2.6,0.8
			c-1,0-2.2-0.5-2.8-1.1c-0.7-0.7-1.1-1.8-1.1-3c0-0.1,0-0.3,0-0.5v-0.4v-3c0-1.4-1.5-1.3-1.6-1.4c0-0.2,1.9-0.4,3.1-0.6
			c0.3,0,0.3,0.1,0.3,0.8v4.5v0.6c0,2,1.2,3.3,2.9,3.3c1.6,0,3-1.2,2.9-2.6v-0.1v-4.3c0-1.7-1.6-1.4-1.6-1.5c0-0.3,2.4-0.5,3.1-0.7
			c0.1,0,0.3,0,0.3,0.6v1.4c1-1.2,2.1-1.7,3.5-1.7s2.3,0.6,3.2,1.9c1-1.3,2.2-1.9,3.7-1.9c2.3,0,3.7,1.6,3.7,4.2v2.9
			c0,0.6,0.1,1.2,0.3,1.4c0.2,0.3,0.9,0.6,1.4,0.7c0.2,0,0.3,0.1,0.3,0.3c0,0.1-0.1,0.2-0.3,0.2c-0.1,0-4.2,0-4.3,0
			c-0.2,0-0.3-0.1-0.3-0.2s0.1-0.2,0.2-0.2c0.9-0.3,1-0.4,1-1.8V385c0-1.2-0.2-1.9-0.7-2.6c-0.7-0.7-1.4-1.1-2.2-1.1
			c-1.3,0-2.6,0.9-2.6,1.7c0,0.1,0,0.2,0,0.3c0.1,0.4,0.1,0.5,0.1,0.9v3.4c0,1.3,0.3,1.7,1.6,1.8c0.3,0,0.4,0.1,0.4,0.3
			s-0.1,0.2-0.3,0.2c0,0-4.2,0-4.3,0c-0.1,0-0.3,0-0.3-0.2c0-0.1,0.1-0.1,0.2-0.2c0.9-0.3,0.9-0.4,0.9-1.7v-3.4c0-1.8-1-2.9-2.7-2.9
			c-1.5,0-2.6,0.8-2.6,2.1v4.2c0,0.3,0,0.7,0,0.9c0.1,0.7,1.7,0.7,1.7,0.8c0,0.1,0,0.2-0.1,0.2
			C-302.8,389.6-305.8,389.9-305.8,389.9z"/>
	</g>
	<g>
		<g>
			<path class="st0" d="M-222.8,381.4l2.1,4c0.6,0,1.1,0,1.7,0.1l-2.9-5.2h-1.7l-2.6,4.8c0.5,0,1,0,1.4,0L-222.8,381.4z"/>
		</g>
		<g>
			<path class="st0" d="M-211.9,380.3h-1.6v5.6c0.6,0,1.1,0.1,1.6,0.1V380.3z"/>
		</g>
		<g>
			<path class="st0" d="M-218.4,389.9h1.8l-2.4-4.4c-0.6,0-1.1-0.1-1.7-0.1L-218.4,389.9z"/>
		</g>
		<g>
			<path class="st0" d="M-227.3,389.9l2.5-4.7c-0.5,0-1,0-1.4,0l-2.6,4.8L-227.3,389.9L-227.3,389.9z"/>
		</g>
		<g>
			<path class="st0" d="M-204.6,389.9v-1.4h-7.3V386c-0.5,0-1.1-0.1-1.6-0.1v4C-213.5,389.9-204.6,389.9-204.6,389.9z"/>
		</g>
		<g>
			<polygon class="st0" points="-278.4,380.3 -281.3,386.1 -281.3,386.1 			"/>
		</g>
		<g>
			<path class="st0" d="M-286.7,380.3h-1.7l3.3,6.1c0.5,0,1-0.1,1.5-0.1L-286.7,380.3z"/>
		</g>
		<g>
			<path class="st0" d="M-272.1,380.3h-1.6v5.2c0.5,0,1.1,0,1.6-0.1V380.3z"/>
		</g>
		<g>
			<path class="st0" d="M-249.2,381.7h4.4v-1.3h-10.4v1.3h4.4v3.1c0.5,0,1.1,0,1.6,0V381.7L-249.2,381.7z"/>
		</g>
		<g>
			<path class="st0" d="M-232,380.3h-1.6v4.5c0.5,0,1.1,0,1.6,0V380.3z"/>
		</g>
		<g>
			<path class="st0" d="M-240.6,380.3h-1.6v4.4c0.5,0,1.1,0,1.6,0V380.3z"/>
		</g>
		<g>
			<path class="st0" d="M-262.7,385L-262.7,385c0.4,0,0.7,0,1.1,0H-262.7z"/>
		</g>
		<g>
			<path class="st0" d="M-265.5,381.6h5.5c0.4,0,0.7,0.1,0.8,0.2s0.2,0.4,0.2,0.8v1.4c0,0.4-0.1,0.7-0.2,0.8c0,0-0.2,0.1-0.3,0.1
				c0.7,0,1.4,0,2.1,0c0-0.1,0-0.3,0-0.5v-2.2c0-0.7-0.1-1.1-0.5-1.4c-0.3-0.3-0.8-0.4-1.5-0.4h-7.7v4.8c0.5,0,1.1,0,1.6-0.1V381.6z
				"/>
		</g>
		<g>
			<path class="st0" d="M-279.7,385.9l2.9-5.6L-279.7,385.9z"/>
		</g>
		<g>
			<path class="st0" d="M-279.7,385.9l2.9-5.6h-1.6l-2.9,5.7C-280.8,386-280.3,386-279.7,385.9z"/>
		</g>
		<g class="st1">
			<path class="st0" d="M-260,385c0.2,0,0.4,0,0.5,0c-0.7,0-1.4,0-2.1,0H-260z"/>
		</g>
		<g>
			<path class="st0" d="M-283.2,389.9l0.7-1.6l1.1-2.2l0,0l-1.1,2.2l-1.1-2.1c-0.5,0-1,0.1-1.5,0.1L-283.2,389.9L-283.2,389.9z"/>
		</g>
		<g>
			<path class="st0" d="M-272.1,389.9v-4.5c-0.5,0-1.1,0-1.6,0.1v4.4H-272.1z"/>
		</g>
		<g>
			<path class="st0" d="M-249.2,389.9v-5.2c-0.5,0-1.1,0-1.6,0v5.2H-249.2L-249.2,389.9z"/>
		</g>
		<g>
			<path class="st0" d="M-241.7,389.4c0.3,0.3,0.9,0.5,1.8,0.5h5.7c0.9,0,1.4-0.1,1.8-0.5c0.3-0.3,0.5-0.9,0.5-1.8v-2.7
				c-0.5,0-1.1,0-1.6,0v3.7h-7v-3.9c-0.5,0-1.1,0-1.6,0v2.9C-242.1,388.6-242,389.2-241.7,389.4z"/>
		</g>
		<g>
			<path class="st0" d="M-265.5,389.9v-4.8c-0.5,0-1.1,0-1.6,0.1v4.8L-265.5,389.9L-265.5,389.9z"/>
		</g>
		<g>
			<path class="st0" d="M-260,385h-1.6c-0.4,0-0.7,0-1.1,0v1.2l3.9,3.7h2.4l-4.4-3.7h1.4c0.7,0,1.2-0.1,1.5-0.4
				c0.2-0.2,0.4-0.5,0.5-0.9c-0.7,0-1.4,0-2.1,0C-259.6,384.9-259.8,385-260,385z"/>
		</g>
		<g>
			<path class="st0" d="M-279.7,385.9c-0.5,0-1,0.1-1.5,0.1l-1.2,2.2l-0.7,1.6h1.4L-279.7,385.9z"/>
		</g>
		<g>
			<path class="st0" d="M-229.3,386.5l-0.4,1c5.5-0.1,11.5-1,13-3.3c-2.6,1.3-6.7,2.1-10.9,2.3c-0.1,0-1.2,0-1.2,0H-229.3z"/>
		</g>
	</g>
</g>
</svg>
